# This file uses centimeters as units for non-parametric coordinates.

mtllib Cenicero_OBJ.mtl
g default
v 0.000000 0.921822 0.000000
v -5.133381 3.686448 7.065492
v -5.325524 3.534501 7.329954
v -5.378576 3.188980 7.402974
v -7.402975 3.188980 5.378576
v -7.329955 3.534501 5.325524
v -7.065493 3.686448 5.133381
v 5.133384 3.686448 -7.065495
v 5.325526 3.534501 -7.329957
v 5.378579 3.188980 -7.402977
v 7.402977 3.188980 -5.378578
v 7.329957 3.534501 -5.325526
v 7.065495 3.686448 -5.133383
v -6.866150 3.686448 4.988548
v -6.601572 3.577102 4.796320
v -6.445992 3.293877 4.683285
v -4.683284 3.293877 6.445992
v -4.796319 3.577102 6.601572
v -4.988548 3.686448 6.866150
v 6.866153 3.686448 -4.988548
v 6.601573 3.577102 -4.796320
v 6.445994 3.293877 -4.683285
v 4.683294 3.293877 -6.445993
v 4.796329 3.577102 -6.601573
v 4.988558 3.686448 -6.866152
v -2.698782 3.686448 8.305997
v -2.799794 3.534497 8.616880
v -2.827683 3.188967 8.702716
v -2.462150 3.293866 7.577719
v -2.521575 3.577099 7.760612
v -2.622633 3.686448 8.071637
v 8.071645 3.686448 -2.622636
v 7.760616 3.577101 -2.521577
v 7.577722 3.293872 -2.462151
v 8.702720 3.188975 -2.827686
v 8.616881 3.534499 -2.799795
v 8.305992 3.686448 -2.698781
v 2.827683 3.188967 8.702715
v 2.799794 3.534497 8.616879
v 2.698781 3.686448 8.305996
v 5.378575 3.188980 7.402974
v 5.325522 3.534501 7.329953
v 5.133380 3.686448 7.065492
v 6.445991 3.293877 4.683285
v 6.601571 3.577102 4.796320
v 6.866149 3.686448 4.988548
v 7.577719 3.293872 2.462151
v 7.760613 3.577101 2.521577
v 8.071642 3.686448 2.622636
v 2.622634 3.686448 8.071636
v 2.521576 3.577099 7.760612
v 2.462150 3.293866 7.577718
v 4.683284 3.293877 6.445992
v 4.796319 3.577102 6.601571
v 4.988548 3.686448 6.866150
v 8.305988 3.686448 2.698780
v 8.616877 3.534499 2.799794
v 8.702715 3.188975 2.827684
v 7.402973 3.188980 5.378575
v 7.329953 3.534501 5.325523
v 7.065491 3.686448 5.133380
v 2.698782 3.686448 -8.305995
v 2.799795 3.534498 -8.616882
v 2.827685 3.188972 -8.702720
v 2.462151 3.293870 -7.577721
v 2.521577 3.577100 -7.760615
v 2.622636 3.686448 -8.071642
v -8.702717 3.188971 2.827684
v -8.616879 3.534498 2.799794
v -8.305993 3.686448 2.698781
v -8.071639 3.686448 2.622635
v -7.760613 3.577100 2.521577
v -7.577719 3.293869 2.462151
v -7.402975 3.188980 -5.378576
v -7.329955 3.534501 -5.325524
v -7.065493 3.686448 -5.133381
v -8.305993 3.686448 -2.698781
v -8.616879 3.534498 -2.799794
v -8.702717 3.188971 -2.827684
v -8.071639 3.686448 -2.622634
v -7.760613 3.577100 -2.521576
v -7.577719 3.293869 -2.462150
v -2.698781 3.686448 -8.305995
v -2.799795 3.534498 -8.616882
v -2.827685 3.188972 -8.702720
v -2.622635 3.686448 -8.071642
v -2.521576 3.577100 -7.760615
v -2.462150 3.293870 -7.577721
v -6.866151 3.686448 -4.988548
v -6.601572 3.577102 -4.796319
v -6.445992 3.293877 -4.683284
v -5.133382 3.686448 -7.065494
v -5.325525 3.534501 -7.329956
v -5.378577 3.188980 -7.402976
v -4.683285 3.293877 -6.445993
v -4.796320 3.577102 -6.601573
v -4.988548 3.686448 -6.866151
v -7.218405 -0.018265 0.000001
v -6.865112 -0.018265 2.230611
v -5.839813 -0.018265 4.242875
v -4.242874 -0.018265 5.839814
v -2.230610 -0.018265 6.865112
v 0.000000 -0.018265 7.218405
v 2.230610 -0.018265 6.865112
v 4.242873 -0.018265 5.839812
v 5.839812 -0.018265 4.242874
v 6.865111 -0.018265 2.230610
v 7.218404 -0.018265 0.000001
v 6.865115 -0.018265 -2.230610
v 5.839817 -0.018265 -4.242876
v 4.242876 -0.018265 -5.839814
v 2.230611 -0.018265 -6.865113
v 0.000000 -0.018265 -7.218406
v -2.230611 -0.018265 -6.865112
v -4.242875 -0.018265 -5.839813
v -5.839813 -0.018265 -4.242874
v -6.865112 -0.018265 -2.230609
v 0.000000 -0.224757 0.000000
v -7.108994 -0.224757 0.000001
v -7.186731 -0.162815 0.000001
v -6.834989 -0.162816 2.220823
v -6.761056 -0.224757 2.196801
v -5.814188 -0.162816 4.224257
v -5.751297 -0.224757 4.178564
v -4.224257 -0.162815 5.814189
v -4.178564 -0.224757 5.751298
v -2.220822 -0.162815 6.834989
v -2.196800 -0.224757 6.761056
v 0.000000 -0.162816 7.186731
v 0.000000 -0.224757 7.108994
v 2.220822 -0.162816 6.834989
v 2.196800 -0.224757 6.761056
v 4.224256 -0.162816 5.814188
v 4.178563 -0.224757 5.751297
v 5.814188 -0.162816 4.224257
v 5.751297 -0.224757 4.178563
v 6.834988 -0.162816 2.220823
v 6.761055 -0.224757 2.196800
v 7.186730 -0.162815 0.000001
v 7.108993 -0.224757 0.000001
v 6.834991 -0.162816 -2.220822
v 6.761059 -0.224757 -2.196800
v 5.814193 -0.162816 -4.224258
v 5.751302 -0.224757 -4.178565
v 4.224258 -0.162815 -5.814190
v 4.178566 -0.224757 -5.751299
v 2.220823 -0.162816 -6.834990
v 2.196801 -0.224757 -6.761057
v 0.000000 -0.162816 -7.186733
v 0.000000 -0.224757 -7.108995
v -2.220823 -0.162816 -6.834989
v -2.196800 -0.224757 -6.761056
v -4.224257 -0.162816 -5.814188
v -4.178564 -0.224757 -5.751297
v -5.814188 -0.162815 -4.224257
v -5.751297 -0.224757 -4.178564
v -6.834989 -0.162816 -2.220822
v -6.761056 -0.224757 -2.196800
v -2.652060 0.228200 8.162201
v -2.556498 -0.023486 7.868093
v -4.862748 -0.023486 6.692997
v -5.044518 0.228197 6.943182
v 6.943185 0.228197 -5.044520
v 6.693000 -0.023486 -4.862750
v 7.868095 -0.023486 -2.556499
v 8.162205 0.228199 -2.652061
v -6.692998 -0.023486 4.862748
v -6.943183 0.228197 5.044518
v 5.044520 0.228197 -6.943185
v 4.862750 -0.023486 -6.693000
v -0.000000 0.231455 8.577163
v -0.000000 -0.023475 8.270655
v 8.271444 -0.023478 -0.000000
v 8.578873 0.230369 0.000000
v 7.868091 -0.023486 2.556497
v 8.162200 0.228198 2.652059
v 2.652059 0.228200 8.162201
v 2.556497 -0.023486 7.868093
v 6.692997 -0.023486 4.862747
v 6.943182 0.228197 5.044517
v 5.044517 0.228197 6.943182
v 4.862746 -0.023486 6.692997
v -7.868093 -0.023486 2.556498
v -8.162202 0.228199 2.652060
v 2.652061 0.228199 -8.162204
v 2.556499 -0.023486 -7.868095
v -8.270962 -0.023476 0.000000
v -8.577824 0.231038 0.000000
v 0.000000 0.230751 -8.578276
v 0.000000 -0.023477 -8.271171
v -7.868093 -0.023486 -2.556498
v -8.162202 0.228199 -2.652060
v -2.652061 0.228199 -8.162203
v -2.556499 -0.023486 -7.868094
v -6.692998 -0.023486 -4.862748
v -6.943183 0.228197 -5.044518
v -5.044519 0.228197 -6.943184
v -4.862749 -0.023486 -6.692999
v -0.588113 2.362249 7.582746
v -0.444752 2.453581 7.695059
v -0.389266 2.488930 7.887136
v -0.535778 2.798654 7.940685
v -0.601982 2.778017 7.747257
v -0.770727 2.725415 7.640923
v -0.815457 2.706337 8.879738
v -0.621100 2.770491 8.826449
v -0.535778 2.798654 8.634820
v -0.389266 2.488930 8.608669
v -0.466622 2.437770 8.799225
v -0.640724 2.322626 8.846489
v 8.850679 2.023370 -0.380739
v 8.805806 2.207738 -0.274194
v 8.614231 2.290075 -0.226613
v 8.607703 2.488930 -0.431043
v 8.798196 2.433769 -0.505875
v 8.844623 2.309863 -0.673967
v 7.579872 2.351315 -0.624766
v 7.693907 2.450591 -0.485012
v 7.886164 2.488930 -0.431043
v 7.876061 2.290075 -0.226613
v 7.684824 2.234454 -0.259510
v 7.567618 2.089426 -0.345289
v -0.333100 2.095756 7.568216
v -0.240268 2.236190 7.684858
v -0.204649 2.290075 7.875532
v -0.204649 2.290075 8.612232
v -0.256679 2.209063 8.804825
v -0.373154 2.027707 8.849562
v -0.629846 3.188935 8.031046
v -0.701557 3.181045 7.835651
v -0.881996 3.161199 7.734898
v -0.922192 3.188957 8.947347
v -0.717873 3.188954 8.884316
v -0.629846 3.188949 8.688433
v 8.876632 2.695503 -0.873319
v 8.824910 2.767129 -0.678866
v 8.633529 2.798654 -0.593279
v 8.687223 3.188949 -0.697443
v 8.883451 3.188954 -0.785928
v 8.945990 3.188958 -0.991045
v 7.732884 3.157656 -0.948460
v 7.834720 3.180051 -0.768723
v 8.030112 3.188935 -0.697442
v 7.939542 2.798654 -0.593279
v 7.746433 2.776459 -0.657005
v 7.639513 2.719738 -0.819863
v 8.630720 2.221554 0.000000
v 8.823358 2.127860 0.000000
v 8.877015 1.913780 0.000000
v 7.882064 2.221554 0.000000
v 7.691107 2.153373 0.000000
v 7.579925 1.977771 0.000000
v -0.629847 3.188958 8.035698
v -0.705963 3.263945 7.858795
v -0.887911 3.293876 7.769699
v 8.844622 2.309863 0.673967
v 8.798195 2.433769 0.505875
v 8.607702 2.488930 0.431042
v 8.614231 2.290075 0.226612
v 8.805806 2.207738 0.274194
v 8.850679 2.023370 0.380739
v 7.567618 2.089427 0.345289
v 7.684824 2.234455 0.259510
v 7.876061 2.290075 0.226612
v 7.886163 2.488930 0.431042
v 7.693907 2.450591 0.485012
v 7.579872 2.351315 0.624765
v 0.590603 2.360663 7.581969
v 0.445446 2.453139 7.694842
v 0.389266 2.488930 7.887136
v 0.204649 2.290075 7.875532
v 0.240268 2.236191 7.684858
v 0.333100 2.095757 7.568216
v 0.373154 2.027708 8.849562
v 0.256679 2.209064 8.804825
v 0.204649 2.290075 8.612232
v 0.389266 2.488930 8.608670
v 0.466408 2.437911 8.799282
v 0.640031 2.323084 8.846675
v 8.877181 2.696482 0.870662
v 8.825076 2.767428 0.678054
v 8.633526 2.798655 0.593279
v 7.939541 2.798655 0.593279
v 7.746132 2.775999 0.658328
v 7.638443 2.718100 0.824565
v 8.945988 3.188958 0.991045
v 8.883450 3.188954 0.785928
v 8.687222 3.188949 0.697443
v 8.030110 3.188935 0.697442
v 7.834719 3.180051 0.768723
v 7.732882 3.157656 0.948459
v 0.881996 3.161198 7.734898
v 0.701557 3.181045 7.835651
v 0.629845 3.188935 8.031046
v 0.535778 2.798655 7.940685
v 0.600705 2.778415 7.747530
v 0.766196 2.726828 7.641889
v 0.817934 2.705519 8.879251
v 0.621856 2.770241 8.826302
v 0.535778 2.798655 8.634821
v 0.629846 3.188949 8.688433
v 0.717873 3.188954 8.884316
v 0.922192 3.188957 8.947347
v 8.034966 3.189355 0.697468
v 7.858206 3.264096 0.773660
v 7.768623 3.293876 0.955199
v 0.000000 2.221554 7.869706
v 0.000000 2.151150 7.676133
v 0.000000 1.970345 7.564627
v -0.000000 2.221554 8.618546
v -0.000000 2.128448 8.808998
v -0.000000 1.915204 8.862866
v 0.876143 3.161669 -7.735742
v 0.699889 3.181179 -7.835887
v 0.629845 3.188935 -8.031038
v 0.629847 3.188959 -8.035698
v 0.705964 3.263945 -7.858796
v 0.887912 3.293876 -7.769700
v -7.732918 3.157788 0.948468
v -7.834733 3.180088 0.768727
v -8.030119 3.188935 0.697442
v -7.939560 2.798655 0.593279
v -7.746454 2.776523 0.657034
v -7.639563 2.719967 0.819959
v -8.687217 3.188949 0.697443
v -8.883451 3.188954 0.785926
v -8.945991 3.188957 0.991039
v -8.876676 2.695815 0.873433
v -8.824924 2.767225 0.678898
v -8.633516 2.798655 0.593279
v 0.922199 3.188957 -8.947348
v 0.717875 3.188954 -8.884320
v 0.629846 3.188949 -8.688443
v 0.535778 2.798655 -8.634837
v 0.621816 2.770102 -8.826283
v 0.817787 2.705067 -8.879188
v 0.766073 2.726511 -7.641820
v 0.600667 2.778327 -7.747501
v 0.535778 2.798655 -7.940662
v -7.886226 2.488930 0.431042
v -7.694183 2.451216 0.484416
v -7.580789 2.353565 0.622615
v -8.844527 2.310097 0.674947
v -8.798161 2.433843 0.506174
v -8.607667 2.488930 0.431042
v 0.389266 2.488930 -8.608718
v 0.466439 2.437466 -8.799203
v 0.640113 2.321649 -8.846393
v 0.587607 2.361574 -7.582633
v 0.444606 2.453396 -7.694999
v 0.389266 2.488930 -7.887047
v -7.875604 2.290075 0.226612
v -7.684684 2.234101 0.259008
v -7.567573 2.088151 0.343478
v -8.849933 2.018728 0.379573
v -8.805316 2.206308 0.273832
v -8.613371 2.290075 0.226612
v 0.204649 2.290075 -8.613569
v 0.255981 2.209359 -8.805432
v 0.370909 2.028641 -8.850155
v 0.332069 2.094763 -7.568123
v 0.239982 2.235915 -7.684947
v 0.204649 2.290075 -7.875946
v -7.733918 3.158560 -0.942242
v -7.835016 3.180307 -0.766958
v -8.030119 3.188935 -0.697442
v -8.034967 3.189354 -0.697468
v -7.858208 3.264096 -0.773659
v -7.768624 3.293876 -0.955198
v -7.875138 2.228503 0.000000
v -7.683201 2.159934 0.000000
v -7.572618 1.983661 0.000000
v -7.875604 2.290075 -0.226613
v -7.684684 2.234101 -0.259008
v -7.567573 2.088151 -0.343478
v -8.849933 2.018728 -0.379573
v -8.805316 2.206308 -0.273832
v -8.613371 2.290075 -0.226613
v -8.624677 2.228503 0.000000
v -8.816002 2.136366 0.000000
v -8.870182 1.925527 0.000000
v -0.000000 2.221554 -8.626197
v -0.000000 2.127396 -8.818119
v -0.000000 1.912079 -8.871660
v -0.204649 2.290075 -8.613569
v -0.256392 2.208712 -8.805247
v -0.372238 2.026551 -8.849564
v -0.332591 2.093962 -7.567834
v -0.240127 2.235693 -7.684867
v -0.204649 2.290075 -7.875946
v 0.000000 2.221554 -7.877349
v 0.000000 2.152263 -7.685649
v 0.000000 1.973980 -7.574234
v -7.639563 2.719966 -0.819959
v -7.746454 2.776523 -0.657035
v -7.939560 2.798654 -0.593279
v -8.945991 3.188957 -0.991039
v -8.883451 3.188954 -0.785926
v -8.687217 3.188949 -0.697443
v -8.633516 2.798654 -0.593279
v -8.824924 2.767225 -0.678898
v -8.876676 2.695814 -0.873433
v -0.629846 3.188949 -8.688443
v -0.717875 3.188954 -8.884320
v -0.922199 3.188957 -8.947348
v -0.817787 2.705067 -8.879188
v -0.621816 2.770102 -8.826283
v -0.535778 2.798654 -8.634837
v -0.881986 3.161022 -7.734852
v -0.701552 3.180995 -7.835634
v -0.629846 3.188935 -8.031037
v -0.535778 2.798654 -7.940662
v -0.600667 2.778327 -7.747501
v -0.766073 2.726510 -7.641819
v -7.886226 2.488930 -0.431042
v -7.693955 2.450736 -0.485097
v -7.579974 2.351839 -0.625058
v -8.844707 2.310559 -0.674317
v -8.798216 2.433985 -0.505979
v -8.607667 2.488930 -0.431042
v -0.389266 2.488930 -8.608718
v -0.466267 2.437581 -8.799250
v -0.639554 2.322022 -8.846542
v -0.590213 2.359900 -7.581817
v -0.445332 2.452929 -7.694770
v -0.389266 2.488930 -7.887047
v -0.917718 3.686448 8.281971
v -0.728386 3.611932 8.317077
v -0.643096 3.428205 8.356564
v -0.642430 3.416179 8.501223
v -0.730766 3.607728 8.533534
v -0.924263 3.686448 8.527216
v 7.768624 3.293877 -0.955199
v 7.858208 3.264096 -0.773660
v 8.034966 3.189355 -0.697468
v 8.526099 3.686448 -0.994236
v 8.533257 3.607955 -0.800622
v 8.501298 3.416698 -0.711408
v 8.356441 3.429122 -0.712170
v 8.316725 3.612291 -0.798179
v 8.280886 3.686448 -0.987427
v 8.280884 3.686448 0.987427
v 8.316724 3.612291 0.798179
v 8.356441 3.429122 0.712170
v 8.501296 3.416698 0.711408
v 8.533255 3.607955 0.800622
v 8.526097 3.686448 0.994236
v 0.924263 3.686448 8.527216
v 0.730766 3.607728 8.533534
v 0.642430 3.416179 8.501223
v 0.643096 3.428205 8.356564
v 0.728386 3.611932 8.317077
v 0.917718 3.686448 8.281971
v 0.887910 3.293876 7.769699
v 0.705963 3.263945 7.858795
v 0.629847 3.188958 8.035698
v -7.768624 3.293876 0.955198
v -7.858208 3.264095 0.773659
v -8.034967 3.189355 0.697468
v -8.526099 3.686448 0.994236
v -8.533257 3.607955 0.800622
v -8.501298 3.416698 0.711408
v -8.356441 3.429122 0.712170
v -8.316725 3.612291 0.798179
v -8.280885 3.686448 0.987427
v 0.917718 3.686448 -8.281974
v 0.728386 3.611932 -8.317079
v 0.643096 3.428205 -8.356565
v 0.642430 3.416179 -8.501225
v 0.730766 3.607728 -8.533537
v 0.924263 3.686448 -8.527219
v -8.357247 3.424230 -0.711870
v -8.316957 3.610882 -0.798093
v -8.280885 3.686448 -0.987427
v -8.501298 3.416698 -0.711409
v -8.533257 3.607955 -0.800622
v -8.526099 3.686448 -0.994236
v -0.642852 3.423800 -8.502897
v -0.730889 3.609947 -8.534023
v -0.924263 3.686448 -8.527219
v -0.643096 3.428205 -8.356565
v -0.728386 3.611932 -8.317078
v -0.917718 3.686448 -8.281973
v -0.629846 3.188946 -8.035727
v -0.705972 3.263942 -7.858802
v -0.887943 3.293876 -7.769696
v -0.637725 3.331221 8.649436
v -0.728016 3.474533 8.808312
v -0.926557 3.534959 8.854953
v -0.639311 3.359858 8.155711
v -0.720796 3.514761 8.027699
v -0.906147 3.576866 7.957758
v 8.151882 3.364969 -0.708236
v 8.026240 3.516309 -0.790051
v 7.956673 3.576868 -0.975100
v 8.662106 3.342055 -0.706831
v 8.811737 3.477758 -0.797491
v 8.853772 3.534957 -0.996209
v 0.638302 3.341643 8.661748
v 0.728182 3.477629 8.811971
v 0.926557 3.534959 8.854953
v 8.155227 3.360621 0.707970
v 8.027194 3.515068 0.789973
v 7.956672 3.576868 0.975099
v 0.639552 3.364214 8.152362
v 0.720867 3.516006 8.026741
v 0.906147 3.576866 7.957758
v 8.649069 3.331028 0.706155
v 8.807862 3.474483 0.797296
v 8.853770 3.534957 0.996209
v 0.637725 3.331221 -8.649439
v 0.728016 3.474533 -8.808315
v 0.926557 3.534959 -8.854957
v 0.639311 3.359858 -8.155713
v 0.720796 3.514761 -8.027700
v 0.906147 3.576866 -7.957761
v -8.662106 3.342054 0.706831
v -8.811737 3.477758 0.797491
v -8.853772 3.534957 0.996209
v -8.151882 3.364969 0.708236
v -8.026240 3.516309 0.790051
v -7.956672 3.576868 0.975099
v -8.649071 3.331028 -0.706155
v -8.807864 3.474483 -0.797296
v -8.853772 3.534957 -0.996209
v -7.956672 3.576868 -0.975100
v -8.026240 3.516309 -0.790051
v -8.151882 3.364969 -0.708236
v -0.926557 3.534959 -8.854957
v -0.728016 3.474533 -8.808315
v -0.637725 3.331221 -8.649439
v -0.639552 3.364213 -8.152363
v -0.720867 3.516006 -8.026742
v -0.906147 3.576866 -7.957760
v -5.659266 0.921822 4.111694
v -5.988254 1.229208 4.350718
v -4.111694 0.921822 5.659266
v -4.350718 1.229208 5.988253
v 5.659267 0.921822 -4.111696
v 5.988255 1.229208 -4.350719
v 4.111702 0.921822 -5.659267
v 4.350727 1.229208 -5.988255
v -2.161649 0.921822 6.652872
v -2.287310 1.229211 7.039618
v 6.652872 0.921822 -2.161649
v 7.039619 1.229210 -2.287311
v 0.000000 0.921822 6.990722
v 0.000000 1.236348 7.391738
v 6.992260 0.921822 0.000001
v 7.395181 1.233963 0.000001
v 6.652869 0.921822 2.161648
v 7.039617 1.229210 2.287310
v 2.161649 0.921822 6.652871
v 2.287310 1.229211 7.039618
v 5.659265 0.921822 4.111694
v 5.988253 1.229208 4.350718
v 4.111694 0.921822 5.659265
v 4.350718 1.229208 5.988253
v 2.161649 0.921822 -6.652872
v 2.287311 1.229211 -7.039619
v -6.652871 0.921822 2.161649
v -7.039618 1.229211 2.287311
v -6.991273 0.921822 0.000001
v -7.392972 1.235497 0.000001
v 0.000000 0.921822 -6.991724
v 0.000000 1.234802 -7.393978
v -6.652871 0.921822 -2.161649
v -7.039618 1.229211 -2.287310
v -2.161649 0.921822 -6.652872
v -2.287311 1.229211 -7.039618
v -5.659266 0.921822 -4.111694
v -5.988254 1.229208 -4.350718
v -4.111695 0.921822 -5.659266
v -4.350719 1.229208 -5.988254
vt 0.074285 0.173322
vt 0.040495 0.216040
vt 0.304619 0.464474
vt 0.338406 0.421759
vt 0.077070 0.176777
vt 0.342051 0.424291
vt 0.331520 0.206454
vt 0.294782 0.166247
vt 0.334977 0.203670
vt 0.292250 0.169890
vt 0.301834 0.461019
vt 0.036850 0.213509
vt 0.047374 0.431326
vt 0.084105 0.471540
vt 0.043917 0.434110
vt 0.086638 0.467896
vt 0.594065 0.185310
vt 0.070201 0.168241
vt 0.031486 0.209807
vt 0.543466 0.181905
vt 0.095669 0.091221
vt 0.308703 0.469554
vt 0.347415 0.427993
vt 0.047733 0.074229
vt 0.045574 0.219584
vt 0.080967 0.181592
vt 0.333327 0.418216
vt 0.297936 0.456204
vt 0.644834 0.187395
vt 0.372449 0.377961
vt 0.000000 0.056110
vt 0.248423 0.135844
vt 0.797573 0.184232
vt 0.298487 0.160884
vt 0.326705 0.210351
vt 0.288705 0.174968
vt 0.898844 0.176051
vt 0.340060 0.199588
vt 0.848187 0.180660
vt 0.143966 0.107259
vt 0.006454 0.259848
vt 0.038833 0.438191
vt 0.341696 0.155347
vt 0.391712 0.164296
vt 0.130457 0.501952
vt 0.052189 0.427431
vt 0.292025 0.145114
vt 0.080399 0.476902
vt 0.090184 0.462820
vt 0.411513 0.339536
vt 0.417590 0.379033
vt 0.435575 0.414719
vt 0.463708 0.443099
vt 0.499235 0.461396
vt 0.538677 0.467818
vt 0.578174 0.461742
vt 0.613859 0.443757
vt 0.642240 0.415625
vt 0.660538 0.380098
vt 0.666961 0.340656
vt 0.660884 0.301159
vt 0.642898 0.265473
vt 0.614765 0.237092
vt 0.579238 0.218795
vt 0.539796 0.212372
vt 0.500299 0.218449
vt 0.464614 0.236434
vt 0.436233 0.264567
vt 0.539237 0.340095
vt 0.417936 0.300094
vt 0.415886 0.379578
vt 0.434123 0.415764
vt 0.462650 0.444542
vt 0.498674 0.463095
vt 0.538668 0.469608
vt 0.578719 0.463446
vt 0.614904 0.445210
vt 0.643683 0.416683
vt 0.662237 0.380659
vt 0.668750 0.340664
vt 0.662588 0.300614
vt 0.644351 0.264428
vt 0.615824 0.235649
vt 0.579799 0.217096
vt 0.539804 0.210583
vt 0.499754 0.216745
vt 0.463568 0.234982
vt 0.434790 0.263509
vt 0.416237 0.299533
vt 0.409724 0.339528
vt 0.538529 0.498401
vt 0.489633 0.490480
vt 0.445587 0.467791
vt 0.632886 0.212400
vt 0.667763 0.247590
vt 0.690058 0.291837
vt 0.410710 0.432601
vt 0.588841 0.189711
vt 0.587494 0.490917
vt 0.697558 0.340803
vt 0.689621 0.389701
vt 0.631741 0.468623
vt 0.666931 0.433746
vt 0.388415 0.388355
vt 0.539943 0.181780
vt 0.380925 0.339389
vt 0.490977 0.189274
vt 0.388853 0.290492
vt 0.446731 0.211569
vt 0.411541 0.246447
vt 0.449849 0.461989
vt 0.497843 0.465621
vt 0.683199 0.294024
vt 0.646508 0.262873
vt 0.491892 0.483644
vt 0.538659 0.472267
vt 0.690360 0.340765
vt 0.665120 0.299801
vt 0.682785 0.387441
vt 0.671409 0.340674
vt 0.538567 0.491203
vt 0.579531 0.465978
vt 0.661130 0.429484
vt 0.664763 0.381490
vt 0.585307 0.484058
vt 0.616459 0.447367
vt 0.627541 0.462776
vt 0.645829 0.418254
vt 0.661917 0.251791
vt 0.617394 0.233504
vt 0.416557 0.428400
vt 0.461079 0.446688
vt 0.395274 0.386167
vt 0.431966 0.417319
vt 0.628624 0.218202
vt 0.580630 0.214569
vt 0.388123 0.339427
vt 0.413354 0.380391
vt 0.586581 0.196547
vt 0.539814 0.207924
vt 0.395688 0.292751
vt 0.407065 0.339518
vt 0.539905 0.188978
vt 0.498942 0.214213
vt 0.417343 0.250709
vt 0.413711 0.298703
vt 0.493165 0.196133
vt 0.462013 0.232825
vt 0.450932 0.217416
vt 0.432644 0.261938
vt 0.597348 0.124197
vt 0.543957 0.175494
vt 0.115278 0.033707
vt 0.049915 0.068196
vt 0.594419 0.178892
vt 0.646654 0.126807
vt 0.023247 0.000000
vt 0.068751 0.017442
vt 0.001982 0.049973
vt 0.793812 0.123968
vt 0.892168 0.115383
vt 0.847676 0.174252
vt 0.843090 0.120114
vt 0.797168 0.177814
vt 0.547946 0.121282
vt 0.162131 0.048992
vt 0.097759 0.085143
vt 0.401724 0.104513
vt 0.342917 0.149037
vt 0.304682 0.085657
vt 0.353232 0.095245
vt 0.293381 0.138828
vt 0.169910 0.167689
vt 0.681117 0.172752
vt 0.952349 0.141078
vt 0.341241 0.329382
vt 0.963008 0.151655
vt 0.354222 0.340155
vt 0.347072 0.335285
vt 0.934203 0.148890
vt 0.938724 0.143078
vt 0.336949 0.305845
vt 0.199260 0.166878
vt 0.702435 0.160500
vt 0.209333 0.153859
vt 0.204754 0.161013
vt 0.710472 0.172644
vt 0.219981 0.482629
vt 0.024687 0.297656
vt 0.026074 0.350742
vt 0.439038 0.143502
vt 0.186149 0.466968
vt 0.169549 0.483945
vt 0.142744 0.006703
vt 0.140936 0.010040
vt 0.308119 0.005525
vt 0.305535 0.003896
vt 0.245527 0.026994
vt 0.233198 0.032978
vt 0.180578 0.020830
vt 0.192908 0.013610
vt 0.241209 0.022560
vt 0.229128 0.029916
vt 0.250432 0.032389
vt 0.238016 0.037128
vt 0.169032 0.013111
vt 0.183194 0.007402
vt 0.184624 0.024245
vt 0.196292 0.016299
vt 0.191588 0.029608
vt 0.203745 0.022169
vt 0.231466 0.014453
vt 0.218916 0.021445
vt 0.195922 0.032648
vt 0.208239 0.026693
vt 0.200874 0.036790
vt 0.213167 0.032270
vt 0.222414 0.008240
vt 0.208061 0.012736
vt 0.175308 0.017099
vt 0.188714 0.010592
vt 0.237537 0.019354
vt 0.225807 0.027544
vt 0.234494 0.016906
vt 0.222772 0.024805
vt 0.227585 0.011546
vt 0.213855 0.017504
vt 0.187915 0.027175
vt 0.199756 0.018884
vt 0.167024 0.043210
vt 0.181938 0.039959
vt 0.269286 0.023161
vt 0.269388 0.036416
vt 0.162116 0.039145
vt 0.176419 0.034971
vt 0.274966 0.020164
vt 0.276097 0.033773
vt 0.158463 0.035492
vt 0.171846 0.030407
vt 0.279347 0.017522
vt 0.281764 0.031434
vt 0.152641 0.029227
vt 0.165596 0.023028
vt 0.286509 0.013622
vt 0.289450 0.027278
vt 0.141615 0.013823
vt 0.154479 0.011359
vt 0.302957 0.004397
vt 0.302159 0.019403
vt 0.149266 0.025317
vt 0.162470 0.019971
vt 0.291064 0.011348
vt 0.292936 0.025512
vt 0.145573 0.020122
vt 0.158694 0.016254
vt 0.296534 0.008115
vt 0.297122 0.023010
vt 0.155556 0.032356
vt 0.168416 0.026369
vt 0.282771 0.015276
vt 0.286093 0.029258
vt 0.018231 0.353985
vt 0.020257 0.385772
vt 0.023826 0.351877
vt 0.025995 0.383291
vt 0.165698 0.508612
vt 0.132520 0.495768
vt 0.210716 0.119343
vt 0.242430 0.134031
vt 0.154604 0.141509
vt 0.120937 0.145531
vt 0.372412 0.343914
vt 0.362031 0.374470
vt 0.366522 0.282598
vt 0.362756 0.250284
vt 0.213007 0.135694
vt 0.244917 0.146256
vt 0.006498 0.293899
vt 0.016873 0.263338
vt 0.224311 0.496299
vt 0.257974 0.492267
vt 0.012382 0.355174
vt 0.016145 0.387490
vt 0.165873 0.502113
vt 0.133965 0.491541
vt 0.243702 0.041912
vt 0.250385 0.032457
vt 0.251620 0.036000
vt 0.250530 0.039636
vt 0.248886 0.041592
vt 0.176546 0.004057
vt 0.167220 0.010949
vt 0.168029 0.007904
vt 0.169505 0.005791
vt 0.206330 0.041841
vt 0.213123 0.032345
vt 0.214353 0.035897
vt 0.213283 0.039520
vt 0.211615 0.041485
vt 0.212525 0.003812
vt 0.216260 0.004465
vt 0.206425 0.010440
vt 0.207510 0.007522
vt 0.209161 0.005583
vt 0.173014 0.047621
vt 0.183361 0.042395
vt 0.182053 0.045261
vt 0.180243 0.047096
vt 0.262746 0.026856
vt 0.269341 0.036348
vt 0.265635 0.036330
vt 0.262601 0.034097
vt 0.261311 0.031899
vt 0.149911 0.005488
vt 0.141671 0.013756
vt 0.144638 0.004984
vt 0.309831 0.011608
vt 0.307941 0.014947
vt 0.309293 0.007818
vt 0.118454 0.139497
vt 0.153958 0.137231
vt 0.645057 0.180974
vt 0.679000 0.187929
vt 0.125147 0.155376
vt 0.157846 0.152976
vt 0.122661 0.149640
vt 0.155781 0.147365
vt 0.356132 0.372395
vt 0.368113 0.343547
vt 0.362222 0.342743
vt 1.000000 0.161333
vt 0.966450 0.160134
vt 0.366261 0.375908
vt 0.378910 0.344064
vt 0.746807 0.187184
vt 0.712309 0.181379
vt 0.246361 0.142028
vt 0.213177 0.129196
vt 0.352906 0.254483
vt 0.355080 0.285891
vt 0.358644 0.252002
vt 0.360673 0.283782
vt 0.242836 0.152152
vt 0.212635 0.139997
vt 0.211836 0.145896
vt 0.368793 0.247808
vt 0.370797 0.281955
vt 0.898207 0.169662
vt 0.931525 0.171883
vt 0.260458 0.498301
vt 0.224958 0.500576
vt 0.145929 0.101147
vt 0.176774 0.116845
vt 0.253762 0.482423
vt 0.221067 0.484833
vt 0.256249 0.488159
vt 0.223133 0.490443
vt 0.492827 0.177649
vt 0.460625 0.167543
vt 0.012643 0.261901
vt 0.000000 0.293750
vt 0.022772 0.265412
vt 0.010797 0.294266
vt 0.016689 0.295070
vt 0.010107 0.389965
vt 0.008107 0.355817
vt 0.392810 0.157966
vt 0.424264 0.169278
vt 0.167043 0.491911
vt 0.166244 0.497810
vt 0.136047 0.485645
vt 0.695584 0.127798
vt 0.679299 0.181461
vt 0.945258 0.140190
vt 0.988557 0.101461
vt 0.999336 0.154902
vt 0.695718 0.158543
vt 0.744550 0.126265
vt 0.746521 0.180774
vt 0.940766 0.109750
vt 0.931734 0.156306
vt 0.930940 0.165431
vt 0.208973 0.063310
vt 0.178795 0.110690
vt 0.256472 0.075136
vt 0.243893 0.127781
vt 0.211272 0.110460
vt 0.200819 0.092923
vt 0.498761 0.117393
vt 0.493421 0.171257
vt 0.459768 0.158471
vt 0.457175 0.151127
vt 0.452564 0.145285
vt 0.446016 0.142780
vt 0.450080 0.112113
vt 0.433076 0.147955
vt 0.425457 0.162916
vt 0.163868 0.162205
vt 0.684201 0.165826
vt 0.337419 0.322463
vt 0.689019 0.160549
vt 0.158823 0.155218
vt 0.958390 0.145330
vt 0.967587 0.166448
vt 0.340348 0.298663
vt 0.192749 0.170815
vt 0.345809 0.292250
vt 0.352786 0.286914
vt 0.707280 0.165751
vt 0.712639 0.187802
vt 0.031837 0.302524
vt 0.460115 0.173949
vt 0.182862 0.102720
vt 0.037627 0.308462
vt 0.187749 0.096878
vt 0.041516 0.315396
vt 0.193831 0.093128
vt 0.041981 0.331877
vt 0.206755 0.096619
vt 0.038555 0.339116
vt 0.428649 0.154369
vt 0.210031 0.102973
vt 0.174133 0.476791
vt 0.246155 0.042853
vt 0.153378 0.130754
vt 0.172715 0.003740
vt 0.208842 0.042747
vt 0.377275 0.281392
vt 0.176736 0.048578
vt 0.261023 0.028886
vt 0.225540 0.507054
vt 0.147578 0.004187
vt 0.001629 0.356380
vt 0.176485 0.004120
vt 0.216201 0.004523
vt 0.173085 0.047570
vt 0.209322 0.125618
vt 0.307906 0.014872
vt 0.243583 0.019778
vt 0.172313 0.164863
vt 0.166805 0.159878
vt 0.247852 0.024141
vt 0.236052 0.040419
vt 0.684761 0.173910
vt 0.687439 0.167954
vt 0.231038 0.036101
vt 0.182124 0.027187
vt 0.950947 0.144745
vt 0.955652 0.148076
vt 0.178126 0.023660
vt 0.190834 0.007621
vt 0.344041 0.326905
vt 0.340779 0.320766
vt 0.195087 0.010614
vt 0.239849 0.016568
vt 0.178284 0.167869
vt 0.691146 0.163898
vt 0.226890 0.033099
vt 0.162070 0.153287
vt 0.252856 0.029562
vt 0.241944 0.045412
vt 0.683066 0.181571
vt 0.172800 0.020005
vt 0.959613 0.153482
vt 0.962704 0.160779
vt 0.166226 0.015823
vt 0.178690 0.001016
vt 0.355985 0.336807
vt 0.349263 0.332328
vt 0.185348 0.004441
vt 0.185492 0.030320
vt 0.945832 0.144092
vt 0.339453 0.314096
vt 0.198497 0.013436
vt 0.161332 0.151796
vt 0.253732 0.030819
vt 0.193812 0.035741
vt 0.937616 0.150729
vt 0.941128 0.146187
vt 0.189382 0.032777
vt 0.202097 0.016013
vt 0.340406 0.307333
vt 0.343308 0.300953
vt 0.206076 0.019360
vt 0.229805 0.008631
vt 0.196649 0.164195
vt 0.190914 0.167521
vt 0.233690 0.011598
vt 0.220149 0.027679
vt 0.700332 0.163867
vt 0.704062 0.167905
vt 0.216298 0.024207
vt 0.198707 0.039953
vt 0.935485 0.157078
vt 0.348232 0.295107
vt 0.210564 0.023846
vt 0.204426 0.045242
vt 0.934695 0.165011
vt 0.354771 0.290135
vt 0.215562 0.029423
vt 0.218600 0.001579
vt 0.205963 0.152153
vt 0.201722 0.158920
vt 0.224731 0.005403
vt 0.210998 0.020071
vt 0.706815 0.173839
vt 0.708542 0.181507
vt 0.204903 0.015066
vt 0.356275 0.289371
vt 0.216451 0.030671
vt 0.184651 0.169030
vt 0.236889 0.013924
vt 0.695734 0.162485
vt 0.223335 0.030633
vt 0.271193 0.039645
vt 0.216809 0.484538
vt 0.217577 0.486016
vt 0.269765 0.040042
vt 0.170391 0.050260
vt 0.022926 0.301006
vt 0.029649 0.305484
vt 0.164408 0.045770
vt 0.456866 0.167168
vt 0.185160 0.037757
vt 0.179381 0.032530
vt 0.456001 0.159290
vt 0.260034 0.024025
vt 0.182396 0.111803
vt 0.186082 0.104839
vt 0.266923 0.020133
vt 0.277880 0.036972
vt 0.212079 0.477946
vt 0.034859 0.310916
vt 0.159549 0.041720
vt 0.174743 0.028034
vt 0.453771 0.153004
vt 0.190284 0.099812
vt 0.272883 0.016977
vt 0.283428 0.034686
vt 0.206591 0.472945
vt 0.038138 0.317061
vt 0.155869 0.038053
vt 0.171383 0.023867
vt 0.450214 0.148480
vt 0.194957 0.096913
vt 0.277301 0.014236
vt 0.287774 0.032471
vt 0.200607 0.469935
vt 0.138805 0.016237
vt 0.024120 0.347597
vt 0.022632 0.348392
vt 0.138115 0.014872
vt 0.039413 0.323697
vt 0.152798 0.034920
vt 0.038508 0.330422
vt 0.149897 0.031627
vt 0.165182 0.017194
vt 0.440480 0.147197
vt 0.445506 0.146642
vt 0.168478 0.020350
vt 0.199772 0.096748
vt 0.280874 0.011773
vt 0.203838 0.099325
vt 0.284866 0.010112
vt 0.294721 0.028673
vt 0.187990 0.470277
vt 0.194251 0.468872
vt 0.291258 0.030608
vt 0.142826 0.022541
vt 0.030661 0.342637
vt 0.152339 0.002439
vt 0.429184 0.163535
vt 0.432075 0.156138
vt 0.157131 0.008583
vt 0.207052 0.118465
vt 0.301830 0.000648
vt 0.295172 0.004530
vt 0.207430 0.110642
vt 0.309832 0.018158
vt 0.172919 0.485655
vt 0.177161 0.478889
vt 0.303931 0.022615
vt 0.035601 0.336819
vt 0.146502 0.027693
vt 0.161273 0.013540
vt 0.435870 0.150645
vt 0.206358 0.104205
vt 0.289482 0.007897
vt 0.298967 0.026175
vt 0.182240 0.473612
vt 0.253926 0.041038
vt 0.158249 0.140702
vt 0.157633 0.136609
vt 0.251734 0.044216
vt 0.177257 0.000473
vt 0.357514 0.337457
vt 0.164712 0.005931
vt 0.372809 0.340209
vt 0.368699 0.339862
vt 0.167198 0.002884
vt 0.216680 0.041013
vt 0.367342 0.286239
vt 0.371431 0.285628
vt 0.214360 0.044194
vt 0.204513 0.005058
vt 0.209301 0.135309
vt 0.208948 0.139423
vt 0.207291 0.002413
vt 0.217249 0.000955
vt 0.206589 0.150636
vt 0.171711 0.051035
vt 0.021397 0.300356
vt 0.184991 0.047763
vt 0.006102 0.297605
vt 0.010212 0.297951
vt 0.182029 0.050350
vt 0.260214 0.036896
vt 0.220667 0.497108
vt 0.221284 0.501199
vt 0.257936 0.033810
vt 0.011557 0.351524
vt 0.139585 0.004643
vt 0.007474 0.352144
vt 0.142366 0.001868
vt 0.169564 0.502500
vt 0.311289 0.003471
vt 0.169932 0.498382
vt 0.312881 0.007008
vt 0.310920 0.017068
vt 0.172291 0.487172
vt 0.682837 0.187051
vt 0.247028 0.046954
vt 0.157343 0.131009
vt 0.159438 0.146381
vt 0.255526 0.035917
vt 0.362983 0.339046
vt 0.171874 0.000000
vt 0.378450 0.340151
vt 0.163254 0.011317
vt 0.963708 0.166149
vt 0.209264 0.129667
vt 0.202435 0.010169
vt 0.708828 0.187006
vt 0.361672 0.287435
vt 0.218251 0.035757
vt 0.208136 0.145149
vt 0.212037 0.000000
vt 0.935204 0.170480
vt 0.209521 0.046879
vt 0.377030 0.285359
vt 0.180704 0.117028
vt 0.256853 0.028451
vt 0.221575 0.506800
vt 0.219476 0.491429
vt 0.264481 0.040067
vt 0.000460 0.297663
vt 0.187333 0.042699
vt 0.456441 0.172651
vt 0.015928 0.298767
vt 0.176936 0.052406
vt 0.428188 0.168928
vt 0.147574 0.000000
vt 0.001875 0.352413
vt 0.137133 0.009558
vt 0.017233 0.350344
vt 0.307084 0.000000
vt 0.205845 0.123790
vt 0.169640 0.508111
vt 0.170743 0.492657
vt 0.313597 0.012347
vt 0.114354 0.222139
vt 0.264546 0.415658
vt 0.147817 0.203395
vt 0.290737 0.387879
vt 0.185604 0.195486
vt 0.307583 0.353346
vt 0.312871 0.315050
vt 0.223875 0.200741
vt 0.304931 0.277241
vt 0.258398 0.217578
vt 0.286176 0.243769
vt 0.231083 0.434403
vt 0.088163 0.249917
vt 0.071318 0.284450
vt 0.193294 0.442325
vt 0.066042 0.322742
vt 0.155021 0.437055
vt 0.073969 0.360547
vt 0.120498 0.420214
vt 0.092722 0.394021
vt 0.189449 0.318898
vt 0.084829 0.186351
vt 0.080979 0.244746
vt 0.294074 0.451445
vt 0.297922 0.393051
vt 0.127720 0.161004
vt 0.108834 0.215207
vt 0.328317 0.414685
vt 0.316095 0.356165
vt 0.347283 0.257063
vt 0.293104 0.238244
vt 0.285175 0.179977
vt 0.226685 0.192229
vt 0.321945 0.214213
vt 0.263564 0.210390
vt 0.251188 0.476796
vt 0.270067 0.422590
vt 0.050584 0.223114
vt 0.062807 0.281632
vt 0.031617 0.380712
vt 0.085794 0.399545
vt 0.093715 0.457811
vt 0.152210 0.445569
vt 0.056950 0.423569
vt 0.115331 0.427402
vt 0.335590 0.314219
vt 0.313141 0.273898
vt 0.210135 0.151591
vt 0.240645 0.157986
vt 0.185257 0.186172
vt 0.176656 0.171269
vt 0.184779 0.172980
vt 0.144483 0.195185
vt 0.356543 0.340998
vt 0.350301 0.370197
vt 0.322185 0.314703
vt 0.022369 0.296815
vt 0.028603 0.267609
vt 0.056727 0.323089
vt 0.214961 0.475648
vt 0.208988 0.470115
vt 0.202234 0.466532
vt 0.194126 0.464956
vt 0.234417 0.442615
vt 0.033044 0.345444
vt 0.043274 0.323575
vt 0.065759 0.363888
vt 0.168745 0.486216
vt 0.138239 0.479811
vt 0.193641 0.451636
vt 0.179634 0.470921
vn -0.581806 -0.142276 0.800787
vn -0.462833 0.616416 0.637037
vn -0.637036 0.616418 0.462833
vn -0.800787 -0.142276 0.581806
vn -0.163793 0.960389 0.225442
vn -0.225442 0.960389 0.163793
vn 0.581806 -0.142276 -0.800787
vn 0.462833 0.616418 -0.637036
vn 0.637035 0.616419 -0.462832
vn 0.800787 -0.142275 -0.581806
vn 0.163794 0.960389 -0.225443
vn 0.225443 0.960389 -0.163794
vn 0.768557 0.312281 -0.558391
vn 0.468075 0.815630 -0.340077
vn 0.340077 0.815630 -0.468077
vn 0.558391 0.312281 -0.768557
vn 0.136919 0.985575 -0.099477
vn 0.099477 0.985575 -0.136919
vn -0.768558 0.312281 0.558390
vn -0.468075 0.815632 0.340076
vn -0.340076 0.815631 0.468075
vn -0.558391 0.312281 0.768557
vn -0.136919 0.985575 0.099477
vn -0.099477 0.985575 0.136919
vn -0.302978 0.303685 -0.903316
vn -0.189758 0.817379 -0.543952
vn -0.340077 0.815630 -0.468077
vn -0.558391 0.312281 -0.768557
vn -0.055332 0.985899 -0.157928
vn -0.099477 0.985575 -0.136918
vn 0.938911 -0.144023 0.312576
vn 0.743888 0.614818 0.261971
vn 0.637035 0.616419 0.462832
vn 0.800787 -0.142276 0.581806
vn 0.264180 0.959998 0.092804
vn 0.225443 0.960389 0.163794
vn -0.225442 0.960389 -0.163793
vn -0.637036 0.616418 -0.462833
vn -0.743891 0.614815 -0.261972
vn -0.264180 0.959998 -0.092804
vn -0.800787 -0.142276 -0.581806
vn -0.939064 -0.144036 -0.312110
vn 0.303359 0.303502 0.903250
vn 0.189757 0.817382 0.543948
vn 0.340077 0.815631 0.468075
vn 0.558391 0.312281 0.768557
vn 0.055331 0.985899 0.157928
vn 0.099477 0.985575 0.136919
vn -0.091482 0.959981 0.264702
vn 0.055331 0.985899 -0.157928
vn 0.264180 0.959998 -0.092804
vn -0.157864 0.985861 0.056189
vn -0.157865 0.985861 -0.056189
vn -0.136919 0.985575 -0.099477
vn 0.091483 0.959981 0.264702
vn 0.163794 0.960389 0.225443
vn 0.091482 0.959982 -0.264701
vn -0.055331 0.985899 0.157929
vn -0.264180 0.959998 0.092804
vn 0.157864 0.985861 -0.056189
vn 0.157864 0.985861 0.056189
vn 0.136918 0.985575 0.099477
vn -0.091482 0.959982 -0.264700
vn -0.163793 0.960389 -0.225442
vn -0.258472 0.614875 0.745065
vn -0.310540 -0.142962 0.939748
vn -0.743891 0.614815 0.261972
vn -0.939063 -0.144036 0.312113
vn 0.258471 0.614879 -0.745061
vn 0.311039 -0.142945 -0.939586
vn 0.743889 0.614818 -0.261971
vn 0.938907 -0.144021 -0.312588
vn 0.543258 0.817143 -0.192738
vn 0.902421 0.303999 -0.305320
vn 0.189758 0.817378 -0.543953
vn 0.302994 0.303690 -0.903309
vn -0.543254 0.817146 0.192736
vn -0.902333 0.303836 0.305743
vn -0.189757 0.817381 0.543949
vn -0.303309 0.303483 0.903273
vn 0.258472 0.614875 0.745065
vn 0.462834 0.616416 0.637037
vn 0.310549 -0.142961 0.939746
vn 0.581806 -0.142276 0.800787
vn -0.768557 0.312281 -0.558391
vn -0.468075 0.815631 -0.340076
vn -0.543255 0.817146 -0.192737
vn -0.902317 0.303849 -0.305778
vn 0.543258 0.817143 0.192738
vn 0.468075 0.815630 0.340077
vn 0.902427 0.303998 0.305305
vn 0.768557 0.312281 0.558391
vn -0.258471 0.614879 -0.745062
vn -0.462833 0.616418 -0.637035
vn -0.311046 -0.142943 -0.939584
vn -0.581806 -0.142276 -0.800787
vn -0.020445 -0.999791 0.000000
vn -0.892109 -0.451820 0.000000
vn -0.848446 -0.451820 -0.275677
vn -0.019445 -0.999791 -0.006318
vn -0.019445 -0.999791 0.006318
vn -0.848446 -0.451821 0.275677
vn -0.016541 -0.999791 0.012018
vn -0.721731 -0.451821 0.524368
vn -0.012018 -0.999791 0.016541
vn -0.524368 -0.451821 0.721731
vn -0.006318 -0.999791 0.019445
vn -0.275676 -0.451820 0.848446
vn -0.000000 -0.999791 0.020445
vn -0.000000 -0.451821 0.892109
vn 0.006318 -0.999791 0.019445
vn 0.275677 -0.451821 0.848446
vn 0.012018 -0.999791 0.016541
vn 0.524368 -0.451821 0.721731
vn 0.016541 -0.999791 0.012018
vn 0.721731 -0.451820 0.524368
vn 0.019445 -0.999791 0.006318
vn 0.848447 -0.451818 0.275677
vn 0.020445 -0.999791 0.000000
vn 0.892109 -0.451821 0.000001
vn 0.019445 -0.999791 -0.006318
vn 0.848446 -0.451821 -0.275675
vn 0.016541 -0.999791 -0.012018
vn 0.721731 -0.451821 -0.524368
vn 0.012018 -0.999791 -0.016541
vn 0.524367 -0.451822 -0.721731
vn 0.006318 -0.999791 -0.019445
vn 0.275676 -0.451821 -0.848446
vn -0.000000 -0.999791 -0.020445
vn -0.000000 -0.451821 -0.892109
vn -0.006318 -0.999791 -0.019445
vn -0.275677 -0.451821 -0.848446
vn -0.012018 -0.999791 -0.016541
vn -0.524368 -0.451821 -0.721731
vn -0.016541 -0.999791 -0.012018
vn -0.721731 -0.451821 -0.524368
vn 0.000000 -1.000000 -0.000000
vn -0.929016 -0.214041 0.301855
vn -0.976825 -0.214041 0.000000
vn -0.790268 -0.214041 0.574163
vn -0.574163 -0.214040 0.790268
vn -0.301855 -0.214039 0.929016
vn -0.000000 -0.214039 0.976825
vn 0.301855 -0.214039 0.929016
vn 0.574163 -0.214040 0.790268
vn 0.790268 -0.214040 0.574163
vn 0.929016 -0.214040 0.301855
vn 0.976825 -0.214041 0.000001
vn 0.929016 -0.214039 -0.301854
vn 0.790268 -0.214040 -0.574163
vn 0.574162 -0.214041 -0.790268
vn 0.301855 -0.214041 -0.929016
vn 0.000000 -0.214040 -0.976825
vn -0.301855 -0.214039 -0.929016
vn -0.574163 -0.214039 -0.790268
vn -0.790268 -0.214040 -0.574163
vn -0.929016 -0.214040 -0.301855
vn -0.301559 -0.253264 0.919195
vn -0.066736 -0.976161 0.206533
vn 0.000000 -0.976017 0.217695
vn 0.000000 -0.772116 0.635482
vn -0.568505 -0.254025 0.782479
vn -0.127036 -0.976365 0.174850
vn -0.782479 -0.254025 0.568505
vn -0.174850 -0.976365 0.127036
vn 0.782479 -0.254025 -0.568505
vn 0.174850 -0.976365 -0.127036
vn 0.127036 -0.976365 -0.174850
vn 0.568505 -0.254025 -0.782479
vn 0.918389 -0.254168 -0.303250
vn 0.206203 -0.976230 -0.066753
vn 0.634060 -0.773284 0.000001
vn 0.217170 -0.976134 0.000000
vn -0.918554 -0.254153 0.302761
vn -0.206406 -0.976188 0.066743
vn 0.066747 -0.976206 -0.206319
vn 0.302073 -0.253281 -0.919022
vn 0.066736 -0.976161 0.206533
vn 0.301568 -0.253269 0.919191
vn 0.918395 -0.254161 0.303238
vn 0.206203 -0.976230 0.066753
vn 0.782479 -0.254025 0.568505
vn 0.174850 -0.976365 0.127036
vn 0.127036 -0.976365 0.174850
vn 0.568505 -0.254025 0.782479
vn -0.634937 -0.772564 0.000000
vn -0.217493 -0.976062 -0.000000
vn -0.000000 -0.976093 -0.217355
vn -0.000000 -0.772874 -0.634560
vn -0.918556 -0.254151 -0.302758
vn -0.206406 -0.976188 -0.066743
vn -0.066747 -0.976206 -0.206319
vn -0.302079 -0.253283 -0.919019
vn -0.782479 -0.254025 -0.568505
vn -0.174850 -0.976365 -0.127036
vn -0.127036 -0.976365 -0.174850
vn -0.568505 -0.254025 -0.782479
vn 0.002910 -0.999988 -0.004005
vn 0.001530 -0.999988 -0.004708
vn -0.004708 -0.999988 0.001530
vn -0.004005 -0.999988 0.002910
vn -0.000000 -0.999988 -0.004951
vn -0.004951 -0.999988 -0.000000
vn -0.004708 -0.999988 -0.001530
vn -0.001530 -0.999988 -0.004708
vn -0.004005 -0.999988 -0.002910
vn -0.002910 -0.999988 -0.004005
vn -0.002910 -0.999988 0.004005
vn 0.004005 -0.999988 -0.002910
vn 0.004708 -0.999988 -0.001530
vn -0.001530 -0.999988 0.004708
vn 0.004951 -0.999988 -0.000000
vn 0.000000 -0.999988 0.004951
vn 0.004708 -0.999988 0.001530
vn 0.001530 -0.999988 0.004708
vn 0.004005 -0.999988 0.002910
vn 0.002910 -0.999988 0.004005
vn 0.825717 0.558166 -0.081498
vn 0.594009 0.476240 -0.648342
vn 0.665876 0.364630 -0.650887
vn 0.933616 0.348252 -0.084150
vn 0.138627 0.250570 -0.958122
vn 0.139867 0.249803 -0.958142
vn 0.945056 0.310459 0.102393
vn 0.604189 0.110060 0.789204
vn 0.495909 0.286857 0.819627
vn 0.835324 0.539819 0.104062
vn -0.136664 -0.174683 0.975094
vn -0.137976 -0.173676 0.975089
vn 0.111254 0.850589 0.513928
vn 0.848279 0.471029 0.241981
vn 0.822252 0.312718 0.475509
vn 0.104164 0.579852 0.808036
vn 0.974374 -0.174175 -0.142335
vn 0.974457 -0.174936 -0.140820
vn -0.081102 0.596061 0.798833
vn -0.646627 0.500310 0.575815
vn -0.655642 0.645198 0.392240
vn -0.079045 0.848837 0.522712
vn -0.957096 0.252555 0.142067
vn -0.957126 0.253700 0.139805
vn 0.103666 0.340999 0.934330
vn 0.795731 0.127182 0.592146
vn 0.816390 0.103392 0.568171
vn 0.126463 0.191865 0.973239
vn 0.974463 -0.176019 -0.139427
vn 0.979837 -0.145118 -0.137333
vn -0.076269 0.265126 0.961193
vn -0.648886 0.319425 0.690591
vn -0.645868 0.384835 0.659361
vn -0.083140 0.378681 0.921786
vn -0.957666 0.250614 0.141666
vn -0.957127 0.251695 0.143380
vn 0.103894 0.579759 -0.808137
vn 0.821499 0.312606 -0.476882
vn 0.848277 0.471034 -0.241980
vn 0.111254 0.850589 -0.513927
vn 0.974456 -0.174943 0.140819
vn 0.974374 -0.174173 0.142337
vn -0.079045 0.848837 -0.522712
vn -0.655641 0.645199 -0.392241
vn -0.647932 0.500712 -0.573996
vn -0.081585 0.596268 -0.798629
vn -0.957124 0.253709 -0.139808
vn -0.957089 0.252582 -0.142064
vn -0.825853 0.557957 -0.081554
vn -0.593966 0.474811 -0.649430
vn -0.403521 0.633383 -0.660301
vn -0.557285 0.826563 -0.078911
vn -0.138628 0.250549 -0.958127
vn -0.136252 0.251809 -0.958138
vn -0.556138 0.823219 0.114113
vn -0.273623 0.442450 0.854031
vn -0.495419 0.287578 0.819670
vn -0.835246 0.539923 0.104150
vn 0.139305 -0.172947 0.975030
vn 0.137980 -0.173669 0.975090
vn -0.966265 0.245594 -0.077556
vn -0.695820 0.305065 -0.650208
vn -0.668738 0.364393 -0.648080
vn -0.933730 0.348096 -0.083529
vn -0.138127 0.248879 -0.958635
vn -0.139864 0.249791 -0.958145
vn -0.945011 0.310456 0.102814
vn -0.601903 0.109328 0.791050
vn -0.574227 0.096691 0.812967
vn -0.976623 0.174143 0.126022
vn 0.136665 -0.174681 0.975094
vn 0.134338 -0.142563 0.980627
vn -0.966326 0.245699 0.076458
vn -0.700533 0.305005 0.645155
vn -0.668902 0.398308 0.627632
vn -0.990562 0.110016 0.081748
vn -0.139197 0.248475 0.958585
vn -0.137354 0.287182 0.947977
vn 0.076274 0.265121 -0.961194
vn 0.648878 0.319402 -0.690608
vn 0.645038 0.385502 -0.659783
vn 0.082935 0.378740 -0.921780
vn 0.957736 0.250976 -0.140548
vn 0.957196 0.252067 -0.142262
vn -0.979991 -0.145119 0.136226
vn -0.816361 0.103407 -0.568209
vn -0.795796 0.126910 -0.592117
vn -0.974630 -0.176032 0.138240
vn -0.126458 0.191860 -0.973241
vn -0.103722 0.340955 -0.934340
vn -0.975633 0.177764 -0.128610
vn -0.577328 0.100304 -0.810328
vn -0.601560 0.108988 -0.791358
vn -0.945016 0.310413 -0.102897
vn 0.135418 -0.142526 -0.980484
vn 0.137894 -0.174667 -0.974924
vn 0.075157 0.265311 0.961229
vn 0.643477 0.319429 0.695631
vn 0.628659 0.398898 0.667584
vn 0.080392 0.113345 0.990298
vn 0.957743 0.250970 0.140510
vn 0.947379 0.288352 0.139018
vn -0.113076 0.855441 0.505405
vn -0.851959 0.464747 0.241199
vn -0.848682 0.528903 -0.000000
vn -0.118942 0.992901 -0.000001
vn -0.974548 -0.174218 -0.141085
vn -0.984239 -0.176842 -0.000004
vn 0.559576 0.824926 0.079826
vn 0.410659 0.627900 0.661136
vn -0.000172 0.727307 0.686312
vn 0.318223 0.944906 0.076721
vn 0.137501 0.251360 0.958077
vn -0.000152 0.252958 0.967477
vn -0.129123 0.195746 0.972117
vn -0.813563 0.107238 0.571503
vn -0.795625 0.127228 0.592279
vn -0.103651 0.341001 0.934331
vn -0.980006 -0.145084 -0.136157
vn -0.974630 -0.176029 -0.138242
vn -0.135417 -0.142522 -0.980484
vn 0.577329 0.100304 -0.810328
vn 0.601705 0.109258 -0.791210
vn -0.137894 -0.174664 -0.974924
vn 0.975783 0.177298 -0.128116
vn 0.945010 0.310453 -0.102837
vn 0.966235 0.245703 0.077584
vn 0.695793 0.305116 0.650212
vn 0.668635 0.364441 0.648159
vn 0.933726 0.348108 0.083524
vn 0.139222 0.248493 0.958576
vn 0.140952 0.249407 0.958086
vn 0.984418 0.174914 -0.018041
vn 0.647957 0.752024 -0.120881
vn 0.612441 0.759463 0.219391
vn 0.984177 0.172465 0.040634
vn 0.059066 0.982569 -0.176264
vn 0.001293 0.962028 0.272949
vn 0.035782 0.173626 0.984161
vn 0.215547 0.766279 0.605273
vn -0.118459 0.755319 0.644562
vn -0.016397 0.177096 0.984057
vn 0.273057 0.961998 0.000692
vn -0.175589 0.982583 0.060827
vn -0.017793 0.180123 -0.983483
vn -0.119993 0.753547 -0.646350
vn 0.220208 0.761152 -0.610046
vn 0.040935 0.177674 -0.983238
vn -0.175703 0.982548 -0.061063
vn 0.273364 0.961910 -0.001210
vn -0.985043 0.168560 0.035754
vn -0.607921 0.764339 0.214982
vn -0.646167 0.753808 -0.119333
vn -0.984965 0.171951 -0.016642
vn -0.000818 0.962108 0.272667
vn -0.058839 0.982603 -0.176153
vn -0.035782 0.173626 -0.984161
vn -0.215548 0.766279 -0.605273
vn 0.118458 0.755319 -0.644562
vn 0.016397 0.177096 -0.984057
vn -0.273057 0.961998 -0.000692
vn 0.175588 0.982583 -0.060828
vn -0.984419 0.174914 0.018041
vn -0.647957 0.752024 0.120881
vn -0.612442 0.759463 -0.219390
vn -0.984177 0.172464 -0.040634
vn -0.059066 0.982569 0.176263
vn -0.001293 0.962028 -0.272948
vn 0.175562 0.982568 0.061143
vn 0.117996 0.752742 0.647655
vn 0.425125 0.618598 0.660762
vn 0.588812 0.800467 0.112042
vn 0.016447 0.176392 0.984183
vn 0.082399 0.175543 0.981017
vn 0.000878 0.962036 -0.272922
vn 0.607737 0.762927 -0.220451
vn 0.578032 0.517607 -0.630842
vn -0.061372 0.619699 -0.782436
vn 0.983515 0.175886 -0.041972
vn 0.983042 0.139585 -0.118935
vn 0.557422 0.826497 -0.078635
vn 0.556078 0.823247 0.114204
vn 0.966252 0.245454 -0.078169
vn 0.975641 0.178013 0.128205
vn 0.122945 0.992414 -0.000001
vn -0.073961 0.953743 0.291384
vn 0.103123 0.341058 -0.934369
vn -0.084007 0.378769 -0.921671
vn 0.128742 0.196078 -0.972100
vn -0.076938 0.265074 -0.961154
vn 0.316235 0.945339 -0.079564
vn 0.310560 0.943457 0.115937
vn -0.316236 0.945338 -0.079564
vn -0.310561 0.943457 0.115937
vn -0.073961 0.953743 -0.291385
vn -0.933897 0.347841 0.082726
vn 0.080513 0.596132 -0.798839
vn -0.104686 0.579612 -0.808140
vn -0.835053 0.540259 -0.103960
vn -0.825923 0.557923 0.081072
vn 0.078542 0.856142 -0.510737
vn -0.113160 0.855463 -0.505350
vn -0.553646 0.825046 -0.113023
vn -0.559730 0.824866 0.079361
vn 0.078620 0.996905 -0.000001
vn 0.078817 0.856195 0.510606
vn -0.000231 0.992101 -0.125444
vn 0.553651 0.824979 -0.113495
vn 0.082525 0.378329 0.921986
vn 0.081043 0.596138 0.798781
vn -0.104533 0.579624 0.808152
vn 0.835121 0.540140 -0.104031
vn 0.825876 0.557903 0.081689
vn -0.318333 0.944882 0.076563
vn -0.273260 0.961939 0.001359
vn 0.058656 0.982583 0.176323
vn 0.990577 0.109802 -0.081856
vn 0.982564 0.166966 -0.081798
vn 0.982408 0.142865 0.120265
vn -0.078826 0.112011 0.990576
vn 0.128589 0.152643 0.979880
vn -0.081504 0.172405 0.981649
vn 0.120579 0.147644 -0.981663
vn -0.079612 0.113935 -0.990293
vn -0.081285 0.172049 -0.981729
vn -0.982466 0.167402 -0.082075
vn -0.990846 0.107875 -0.081160
vn -0.980757 0.147638 0.127745
vn 0.078823 0.112009 -0.990576
vn -0.128590 0.152643 -0.979880
vn 0.081505 0.172405 -0.981648
vn -0.982564 0.166966 0.081797
vn -0.982408 0.142865 -0.120264
vn -0.120440 0.147544 0.981695
vn -0.040292 0.178899 0.983042
vn 0.982310 0.168070 0.082581
vn 0.990745 0.108302 0.081828
vn 0.985161 0.170671 0.018128
vn -0.061113 0.619806 0.782372
vn -0.134310 -0.142612 0.980624
vn 0.108355 0.800285 -0.589748
vn 0.136489 0.288467 -0.947712
vn -0.588897 0.800426 0.111886
vn -0.947038 0.288926 0.140146
vn 0.782923 0.618835 -0.063843
vn 0.061815 0.619808 0.782315
vn -0.588857 0.800413 -0.112190
vn -0.947017 0.288973 -0.140193
vn -0.108063 0.800298 -0.589784
vn -0.136439 0.288437 -0.947728
vn 0.782985 0.618834 0.063075
vn 0.979833 -0.145167 0.137306
vn 0.061112 0.619811 -0.782368
vn -0.108355 0.800288 0.589744
vn -0.782925 0.618832 0.063845
vn 0.588901 0.800423 -0.111887
vn 0.947088 0.289244 -0.139150
vn -0.782988 0.618830 -0.063075
vn 0.137413 0.288075 0.947697
vn 0.108064 0.800305 0.589774
vn -0.000008 -0.178141 0.984005
vn -0.000007 -0.175586 0.984464
vn -0.139305 -0.172943 0.975031
vn 0.984218 -0.176960 0.000014
vn 0.983714 -0.179739 0.000014
vn 0.974462 -0.176018 0.139430
vn 0.000007 -0.178158 -0.984002
vn 0.000242 -0.175600 -0.984462
vn 0.140658 -0.172891 -0.974846
vn 0.139226 -0.173646 -0.974917
vn -0.139220 -0.173650 -0.974917
vn -0.140656 -0.172891 -0.974846
vn -0.983718 -0.179719 -0.000004
vn -0.974631 -0.174941 0.139610
vn -0.974548 -0.174216 0.141086
vn -0.974630 -0.174940 -0.139611
vn 0.404509 0.633509 -0.659575
vn 0.136262 0.251802 -0.958138
vn 0.694371 0.303483 -0.652493
vn 0.138150 0.248857 -0.958637
vn 0.578412 0.101771 0.809372
vn 0.273168 0.442400 0.854202
vn -0.674324 0.738436 -0.000000
vn -0.966832 0.255414 0.000036
vn -0.000000 0.507612 0.861586
vn 0.669169 0.395632 -0.629038
vn 0.634825 0.523023 0.568722
vn -0.630238 0.396011 0.667814
vn 0.854276 0.519820 -0.000000
vn 0.663217 0.614712 -0.426933
vn 0.793530 0.128435 -0.594824
vn -0.649597 0.384246 -0.656032
vn -0.957124 0.251701 -0.143386
vn -0.000000 0.723773 -0.690039
vn -0.000011 0.253279 -0.967393
vn 0.812593 0.108809 -0.572584
vn -0.651274 0.317760 -0.689109
vn -0.957667 0.250597 -0.141686
vn -0.627391 0.397404 -0.669665
vn -0.667292 0.394230 -0.631906
vn -0.571879 0.521829 0.632968
vn -0.425305 0.616486 -0.662616
vn -0.671079 0.364110 0.645815
vn -0.140948 0.249384 0.958093
vn -0.663216 0.614713 0.426933
vn 0.630209 0.396025 -0.667833
vn 0.644334 0.501501 -0.577348
vn 0.957162 0.252927 -0.140959
vn -0.634821 0.523024 -0.568725
vn -0.823390 0.310894 -0.474736
vn -0.493904 0.288094 -0.820403
vn -0.595761 0.475772 0.647078
vn -0.139718 0.250159 0.958071
vn 0.657282 0.651405 -0.379014
vn 0.957212 0.254111 -0.138466
vn -0.852122 0.464665 -0.240779
vn -0.263763 0.449324 -0.853544
vn -0.412120 0.628596 0.659564
vn -0.137504 0.251340 0.958082
vn 0.672615 0.739993 0.000000
vn 0.966732 0.255791 0.000005
vn -0.001200 0.505208 -0.862997
vn 0.644171 0.383790 0.661626
vn 0.957205 0.252030 0.142263
vn 0.658035 0.651202 0.378056
vn 0.957211 0.254122 0.138450
vn 0.646705 0.500483 0.575578
vn 0.957163 0.252928 0.140949
vn -0.822780 0.311429 0.475442
vn 0.262377 0.446829 -0.855279
vn 0.494340 0.287382 -0.820390
vn 0.593830 0.474537 0.649754
vn 0.139727 0.250165 0.958068
vn 0.580389 0.518343 0.628067
vn -0.426984 0.618574 0.659583
vn 0.629639 0.519400 -0.577736
vn -0.660174 0.616816 -0.428612
vn 0.426983 0.618575 -0.659584
vn -0.580385 0.518342 -0.628072
vn -0.218257 0.760740 0.611259
vn -0.629635 0.519400 0.577739
vn 0.644732 0.754539 0.122437
vn 0.660176 0.616801 0.428632
vn 0.667256 0.394212 0.631955
vn 0.076412 0.995530 -0.055517
vn 0.753563 0.363854 -0.547497
vn 0.547497 0.363854 -0.753563
vn 0.055517 0.995530 -0.076412
vn 0.090465 0.995475 -0.029078
vn 0.881764 0.368417 -0.294552
vn 0.292911 0.367093 -0.882863
vn 0.029063 0.995468 -0.090552
vn -0.076412 0.995530 0.055517
vn -0.753564 0.363854 0.547496
vn -0.547497 0.363854 0.753563
vn -0.055517 0.995530 0.076412
vn -0.090309 0.995489 0.029105
vn -0.881614 0.368406 0.295017
vn -0.293277 0.367002 0.882779
vn -0.029090 0.995481 0.090394
vn -0.000009 0.369663 -0.929166
vn -0.000000 0.995436 -0.095429
vn -0.095103 0.995467 -0.000000
vn -0.927892 0.372848 0.000030
vn -0.292895 0.367083 -0.882872
vn -0.029063 0.995468 -0.090552
vn -0.090309 0.995489 -0.029105
vn -0.881592 0.368431 -0.295048
vn -0.076412 0.995530 -0.055517
vn -0.753563 0.363854 -0.547497
vn -0.547497 0.363854 -0.753563
vn -0.055517 0.995530 -0.076412
vn -0.000046 0.369539 0.929215
vn 0.000000 0.995456 0.095218
vn 0.095313 0.995447 -0.000000
vn 0.927909 0.372806 0.000004
vn 0.090465 0.995475 0.029078
vn 0.881771 0.368412 0.294538
vn 0.293324 0.367039 0.882748
vn 0.029090 0.995481 0.090394
vn 0.076412 0.995530 0.055517
vn 0.753563 0.363854 0.547497
vn 0.547497 0.363854 0.753563
vn 0.055517 0.995530 0.076412
vn 0.000000 1.000000 -0.000000
s 1
g Cenicero
usemtl initialShadingGroup
f 4/155/1 3/17/2 6/20/3 5/152/4
f 3/18/2 2/1/5 7/12/6 6/19/3
f 10/167/7 9/21/8 12/24/9 11/154/10
f 9/22/8 8/3/11 13/6/12 12/23/9
f 16/708/13 15/25/14 18/26/15 17/692/16
f 15/25/14 14/2/17 19/5/18 18/26/15
f 22/698/19 21/27/20 24/28/21 23/694/22
f 21/27/20 20/4/23 25/11/24 24/28/21
f 52/719/25 51/343/26 54/36/27 53/702/28
f 51/343/26 50/277/29 55/10/30 54/36/27
f 58/348/31 57/37/32 60/39/33 59/162/34
f 57/346/32 56/275/35 61/9/36 60/38/33
f 76/15/37 75/42/38 78/365/39 77/283/40
f 75/43/38 74/169/41 79/367/42 78/44/39
f 88/739/43 87/371/44 96/49/45 95/712/46
f 87/371/44 86/285/47 97/16/48 96/49/45
f 7/12/6 2/1/5 19/5/18 14/2/17
f 13/6/12 8/3/11 25/11/24 20/4/23
f 2/1/5 26/271/49 31/326/50 19/5/18
f 37/333/51 13/6/12 20/4/23 32/273/52
f 61/9/36 56/275/35 49/341/53 46/7/54
f 40/337/55 43/8/56 55/10/30 50/277/29
f 43/8/56 61/9/36 46/7/54 55/10/30
f 8/3/11 62/281/57 67/356/58 25/11/24
f 70/360/59 7/12/6 14/2/17 71/279/60
f 76/15/37 77/283/40 80/263/61 89/13/62
f 83/267/63 92/14/64 97/16/48 86/285/47
f 92/14/64 76/15/37 89/13/62 97/16/48
f 2/1/5 3/18/2 27/320/65 26/271/49
f 3/17/2 4/155/1 28/322/66 27/29/65
f 5/152/4 6/20/3 69/358/67 68/390/68
f 6/19/3 7/12/6 70/360/59 69/41/67
f 8/3/11 9/22/8 63/350/69 62/281/57
f 9/21/8 10/167/7 64/352/70 63/40/69
f 11/154/10 12/24/9 36/31/71 35/159/72
f 12/23/9 13/6/12 37/333/51 36/30/71
f 14/2/17 15/25/14 72/362/73 71/279/60
f 15/25/14 16/708/13 73/728/74 72/362/73
f 17/692/16 18/26/15 30/324/75 29/696/76
f 18/26/15 19/5/18 31/326/50 30/324/75
f 20/4/23 21/27/20 33/328/77 32/273/52
f 21/27/20 22/698/19 34/725/78 33/328/77
f 23/694/22 24/28/21 66/354/79 65/706/80
f 24/28/21 25/11/24 67/356/58 66/354/79
f 40/337/55 39/32/81 42/34/82 43/8/56
f 39/335/81 38/379/83 41/164/84 42/33/82
f 44/704/85 45/35/86 48/339/87 47/700/88
f 45/35/86 46/7/54 49/341/53 48/339/87
f 46/7/54 45/35/86 54/36/27 55/10/30
f 45/35/86 44/704/85 53/702/28 54/36/27
f 43/8/56 42/34/82 60/38/33 61/9/36
f 42/33/82 41/164/84 59/162/34 60/39/33
f 80/263/61 81/265/89 90/46/90 89/13/62
f 81/265/89 82/710/91 91/714/92 90/46/90
f 83/267/63 84/45/93 93/48/94 92/14/64
f 84/269/93 85/386/95 94/172/96 93/47/94
f 74/169/41 75/43/38 93/47/94 94/172/96
f 75/42/38 76/15/37 92/14/64 93/48/94
f 89/13/62 90/46/90 96/49/45 97/16/48
f 90/46/90 91/714/92 95/712/46 96/49/45
s 9
f 119/50/97 120/90/98 157/89/99 158/70/100
f 120/90/98 119/50/97 122/51/101 121/71/102
f 121/71/102 122/51/101 124/52/103 123/72/104
f 123/72/104 124/52/103 126/53/105 125/73/106
f 125/73/106 126/53/105 128/54/107 127/74/108
f 127/74/108 128/54/107 130/55/109 129/75/110
f 129/75/110 130/55/109 132/56/111 131/76/112
f 131/76/112 132/56/111 134/57/113 133/77/114
f 133/77/114 134/57/113 136/58/115 135/78/116
f 135/78/116 136/58/115 138/59/117 137/79/118
f 137/79/118 138/59/117 140/60/119 139/80/120
f 139/80/120 140/60/119 142/61/121 141/81/122
f 141/81/122 142/61/121 144/62/123 143/82/124
f 143/82/124 144/62/123 146/63/125 145/83/126
f 145/83/126 146/63/125 148/64/127 147/84/128
f 147/84/128 148/64/127 150/65/129 149/85/130
f 149/85/130 150/65/129 152/66/131 151/86/132
f 151/86/132 152/66/131 154/67/133 153/87/134
f 153/87/134 154/67/133 156/68/135 155/88/136
f 155/88/136 156/68/135 158/70/100 157/89/99
f 122/51/101 119/50/97 118/69/137
f 124/52/103 122/51/101 118/69/137
f 126/53/105 124/52/103 118/69/137
f 128/54/107 126/53/105 118/69/137
f 130/55/109 128/54/107 118/69/137
f 132/56/111 130/55/109 118/69/137
f 134/57/113 132/56/111 118/69/137
f 136/58/115 134/57/113 118/69/137
f 138/59/117 136/58/115 118/69/137
f 140/60/119 138/59/117 118/69/137
f 142/61/121 140/60/119 118/69/137
f 144/62/123 142/61/121 118/69/137
f 146/63/125 144/62/123 118/69/137
f 148/64/127 146/63/125 118/69/137
f 150/65/129 148/64/127 118/69/137
f 152/66/131 150/65/129 118/69/137
f 154/67/133 152/66/131 118/69/137
f 156/68/135 154/67/133 118/69/137
f 158/70/100 156/68/135 118/69/137
f 119/50/97 158/70/100 118/69/137
f 99/138/138 98/142/139 120/90/98 121/71/102
f 100/134/140 99/138/138 121/71/102 123/72/104
f 101/132/141 100/134/140 123/72/104 125/73/106
f 102/112/142 101/132/141 125/73/106 127/74/108
f 103/116/143 102/112/142 127/74/108 129/75/110
f 104/122/144 103/116/143 129/75/110 131/76/112
f 105/126/145 104/122/144 131/76/112 133/77/114
f 106/128/146 105/126/145 133/77/114 135/78/116
f 107/124/147 106/128/146 135/78/116 137/79/118
f 108/120/148 107/124/147 137/79/118 139/80/120
f 109/118/149 108/120/148 139/80/120 141/81/122
f 110/114/150 109/118/149 141/81/122 143/82/124
f 111/130/151 110/114/150 143/82/124 145/83/126
f 112/136/152 111/130/151 145/83/126 147/84/128
f 113/140/153 112/136/152 147/84/128 149/85/130
f 114/144/154 113/140/153 149/85/130 151/86/132
f 115/148/155 114/144/154 151/86/132 153/87/134
f 116/150/156 115/148/155 153/87/134 155/88/136
f 117/146/157 116/150/156 155/88/136 157/89/99
f 98/142/139 117/146/157 157/89/99 120/90/98
s 1
f 159/92/158 160/115/159 172/121/160 171/91/161
f 160/115/159 159/92/158 162/93/162 161/111/163
f 161/111/163 162/93/162 168/97/164 167/131/165
f 163/95/166 164/129/167 170/135/168 169/94/169
f 164/129/167 163/95/166 166/96/170 165/113/171
f 165/113/171 166/96/170 174/100/172 173/117/173
f 167/131/165 168/97/164 184/104/174 183/133/175
f 169/94/169 170/135/168 186/139/176 185/98/177
f 171/91/161 172/121/160 178/125/178 177/99/179
f 173/117/173 174/100/172 176/101/180 175/119/181
f 175/119/181 176/101/180 180/103/182 179/123/183
f 177/99/179 178/125/178 182/127/184 181/102/185
f 179/123/183 180/103/182 181/102/185 182/127/184
f 183/133/175 184/104/174 188/106/186 187/137/187
f 185/98/177 186/139/176 190/143/188 189/105/189
f 187/137/187 188/106/186 192/108/190 191/141/191
f 189/105/189 190/143/188 194/147/192 193/107/193
f 191/141/191 192/108/190 196/110/194 195/145/195
f 193/107/193 194/147/192 198/149/196 197/109/197
f 195/145/195 196/110/194 197/109/197 198/149/196
f 160/115/159 161/111/163 101/132/198 102/112/199
f 164/129/167 165/113/171 109/118/200 110/114/201
f 172/121/160 160/115/159 102/112/199 103/116/202
f 165/113/171 173/117/173 108/120/203 109/118/200
f 173/117/173 175/119/181 107/124/204 108/120/203
f 178/125/178 172/121/160 103/116/202 104/122/205
f 175/119/181 179/123/183 106/128/206 107/124/204
f 182/127/184 178/125/178 104/122/205 105/126/207
f 179/123/183 182/127/184 105/126/207 106/128/206
f 170/135/168 164/129/167 110/114/201 111/130/208
f 161/111/163 167/131/165 100/134/209 101/132/198
f 167/131/165 183/133/175 99/138/210 100/134/209
f 186/139/176 170/135/168 111/130/208 112/136/211
f 183/133/175 187/137/187 98/142/212 99/138/210
f 190/143/188 186/139/176 112/136/211 113/140/213
f 187/137/187 191/141/191 117/146/214 98/142/212
f 194/147/192 190/143/188 113/140/213 114/144/215
f 191/141/191 195/145/195 116/150/216 117/146/214
f 198/149/196 194/147/192 114/144/215 115/148/217
f 195/145/195 198/149/196 115/148/217 116/150/216
f 168/165/164 162/151/162 4/155/1 5/152/4
f 163/158/166 169/153/169 10/167/7 11/154/10
f 4/155/1 162/151/162 159/156/158 28/322/66
f 166/157/170 163/158/166 11/154/10 35/159/72
f 38/379/83 177/378/179 181/160/185 41/164/84
f 180/163/182 176/161/180 58/348/31 59/162/34
f 181/160/185 180/163/182 59/162/34 41/164/84
f 184/389/174 168/165/164 5/152/4 68/390/68
f 169/153/169 185/166/177 64/352/70 10/167/7
f 192/168/190 79/367/42 74/169/41 196/171/194
f 193/385/193 197/170/197 94/172/96 85/386/95
f 197/170/197 196/171/194 74/169/41 94/172/96
f 201/202/218 200/439/219 203/442/220 202/198/221
f 200/440/219 199/173/222 204/398/223 203/441/220
f 207/205/224 206/443/225 209/446/226 208/199/227
f 206/444/225 205/174/228 210/399/229 209/445/226
f 213/208/230 212/447/231 215/450/232 214/200/233
f 212/448/231 211/175/234 216/403/235 215/449/232
f 219/221/236 218/451/237 221/454/238 220/201/239
f 218/452/237 217/176/240 222/400/241 221/453/238
f 237/220/242 236/463/243 239/466/244 238/206/245
f 236/464/243 235/177/246 240/332/247 239/465/244
f 243/291/248 242/467/249 245/470/250 244/207/251
f 242/468/249 241/178/252 246/179/253 245/469/250
f 258/214/254 257/477/255 260/480/256 259/210/257
f 257/478/255 256/180/258 261/181/259 260/479/256
f 264/229/260 263/481/261 266/484/262 265/211/263
f 263/482/261 262/182/264 267/405/265 266/483/262
f 270/226/266 269/485/267 272/488/268 271/212/269
f 269/486/267 268/183/270 273/406/271 272/487/268
f 276/225/272 275/489/273 278/492/274 277/213/275
f 275/490/273 274/184/276 279/409/277 278/491/274
f 294/301/278 293/501/279 296/504/280 295/218/281
f 293/502/279 292/185/282 297/186/283 296/503/280
f 300/227/284 299/505/285 302/508/286 301/219/287
f 299/506/285 298/187/288 303/336/289 302/507/286
f 315/233/290 314/515/291 317/518/292 316/310/293
f 314/516/291 313/188/294 318/355/295 317/517/292
f 321/305/296 320/519/297 323/522/298 322/230/299
f 320/520/297 319/189/300 324/411/301 323/521/298
f 327/359/302 326/523/303 329/526/304 328/391/305
f 326/524/303 325/231/306 330/235/307 329/525/304
f 333/309/308 332/527/309 335/530/310 334/232/311
f 332/528/309 331/384/312 336/413/313 335/529/310
f 366/246/314 365/549/315 368/552/316 367/315/317
f 365/550/315 364/190/318 369/264/319 368/551/316
f 378/251/320 377/557/321 380/560/322 379/243/323
f 377/558/321 376/191/324 381/394/325 380/559/322
f 390/253/326 389/565/327 392/568/328 391/245/329
f 389/566/327 388/192/330 393/733/331 392/567/328
f 399/314/332 398/571/333 401/574/334 400/247/335
f 398/572/333 397/397/336 402/421/337 401/573/334
f 405/268/338 404/575/339 407/578/340 406/387/341
f 404/576/339 403/248/342 408/256/343 407/577/340
f 411/318/344 410/579/345 413/582/346 412/249/347
f 410/580/345 409/193/348 414/423/349 413/581/346
f 429/289/350 428/591/351 431/594/352 430/290/353
f 428/592/351 427/270/354 432/321/355 431/593/352
f 438/293/356 437/597/357 440/600/358 439/294/359
f 437/598/357 436/272/360 441/329/361 440/599/358
f 444/298/362 443/601/363 446/604/364 445/299/365
f 443/602/363 442/274/366 447/347/367 446/603/364
f 450/303/368 449/605/369 452/608/370 451/304/371
f 449/606/369 448/276/372 453/344/373 452/607/370
f 462/307/374 461/613/375 464/616/376 463/308/377
f 461/614/375 460/278/378 465/363/379 464/615/376
f 468/312/380 467/617/381 470/620/382 469/313/383
f 467/618/381 466/280/384 471/351/385 470/619/382
f 474/282/386 473/621/387 527/665/388 526/262/389
f 473/622/387 472/194/390 528/195/391 527/664/388
f 480/284/392 479/625/393 530/668/394 529/266/395
f 479/626/393 478/196/396 531/197/397 530/666/394
f 201/202/218 202/198/221 207/205/224 208/199/227
f 213/208/230 214/200/233 219/221/236 220/201/239
f 225/222/398 201/202/218 208/199/227 226/203/399
f 202/198/221 229/204/400 234/286/401 207/205/224
f 237/220/242 238/206/245 243/291/248 244/207/251
f 247/228/402 213/208/230 220/201/239 250/209/403
f 258/214/254 259/210/257 264/229/260 265/211/263
f 270/226/266 271/212/269 276/225/272 277/213/275
f 282/216/404 258/214/254 265/211/263 283/215/405
f 288/295/406 282/216/404 283/215/405 289/217/407
f 294/301/278 295/218/281 300/227/284 301/219/287
f 214/200/233 237/220/242 244/207/251 219/221/236
f 307/224/408 225/222/398 226/203/399 310/223/409
f 271/212/269 307/224/410 310/223/411 276/225/272
f 295/218/281 270/226/266 277/213/275 300/227/284
f 259/210/257 247/228/402 250/209/412 264/229/260
f 321/305/296 322/230/299 330/235/307 325/231/306
f 333/309/308 334/232/311 339/237/413 315/233/290
f 322/230/299 340/234/414 345/239/415 330/235/307
f 334/232/311 346/236/416 351/241/417 339/237/413
f 340/234/414 352/238/418 357/259/419 345/239/415
f 346/236/416 358/240/420 363/261/421 351/241/417
f 370/258/422 373/242/423 378/251/320 379/243/323
f 382/260/424 385/244/425 390/253/326 391/245/329
f 396/254/426 366/246/314 399/314/332 400/247/335
f 408/256/343 403/248/342 411/318/344 412/249/347
f 373/242/423 415/250/427 420/255/428 378/251/320
f 385/244/425 421/252/429 426/257/430 390/253/326
f 415/250/427 396/254/426 400/247/335 420/255/428
f 421/252/429 408/256/343 412/249/347 426/257/430
f 352/238/418 370/258/422 379/243/323 357/259/419
f 358/240/420 382/260/424 391/245/431 363/261/421
f 474/282/386 526/262/389 81/265/89 80/263/61
f 526/262/389 369/264/319 82/710/91 81/265/89
f 480/284/392 529/266/395 84/45/93 83/267/63
f 529/437/395 405/268/338 85/386/95 84/269/93
f 427/270/354 31/326/50 26/271/49 432/321/355
f 436/272/360 37/333/51 32/273/52 441/329/361
f 442/274/366 49/341/53 56/275/35 447/347/367
f 448/276/372 40/337/55 50/277/29 453/344/373
f 460/278/378 70/360/59 71/279/60 465/363/379
f 466/280/384 67/356/58 62/281/57 471/351/385
f 474/282/386 80/263/61 77/283/40 477/366/432
f 480/284/392 83/267/63 86/285/47 483/370/433
f 234/286/401 229/204/400 253/287/434 490/288/435 429/289/350 430/290/353 487/424/436
f 435/434/437 243/291/248 238/206/245 496/292/438 438/293/356 439/294/359 493/426/439
f 508/427/440 288/295/406 289/217/407 304/296/441 502/297/442 444/298/362 445/299/365
f 505/300/443 456/435/444 294/301/278 301/219/287 499/302/445 450/303/368 451/304/371
f 459/436/446 321/305/296 325/231/306 517/306/447 462/307/374 463/308/377 520/429/448
f 333/309/308 315/233/290 316/310/293 514/311/449 468/312/380 469/313/383 511/430/450
f 523/432/451 399/314/332 366/246/314 367/315/317 528/195/391 472/194/390 475/316/452
f 532/317/453 484/438/454 411/318/344 403/248/342 531/197/397 478/196/396 481/319/455
f 26/271/49 27/320/65 489/425/456 432/321/355
f 27/29/65 28/322/66 232/373/457 489/323/456
f 29/696/76 30/324/75 492/327/458 255/325/459
f 30/324/75 31/326/50 427/270/354 492/327/458
f 32/273/52 33/328/77 495/330/460 441/329/361
f 33/328/77 34/725/78 433/724/461 495/330/460
f 35/376/72 36/331/71 498/404/462 240/332/247
f 36/30/71 37/333/51 436/272/360 498/334/462
f 38/379/83 39/335/81 501/410/463 303/336/289
f 39/32/81 40/337/55 448/276/372 501/338/463
f 47/700/88 48/339/87 504/342/464 306/340/465
f 48/339/87 49/341/53 442/274/366 504/342/464
f 50/277/29 51/343/26 507/345/466 453/344/373
f 51/343/26 52/719/25 454/718/467 507/345/466
f 56/275/35 57/346/32 510/428/468 447/347/367
f 57/37/32 58/348/31 286/382/469 510/349/468
f 62/281/57 63/350/69 513/431/470 471/351/385
f 63/40/69 64/352/70 331/384/312 513/353/470
f 65/706/80 66/354/79 516/357/471 318/355/295
f 66/354/79 67/356/58 466/280/384 516/357/471
f 68/390/68 69/358/67 519/412/472 327/359/302
f 69/41/67 70/360/59 460/278/378 519/361/472
f 71/279/60 72/362/73 522/364/473 465/363/379
f 72/362/73 73/728/74 457/727/474 522/364/473
f 77/283/40 78/365/39 525/433/475 477/366/432
f 78/44/39 79/367/42 397/397/336 525/368/475
f 486/738/476 534/369/477 87/371/44 88/739/43
f 534/369/477 483/370/433 86/285/47 87/371/44
f 28/322/66 159/156/158 171/372/478 312/377/479 228/401/480 210/399/229 205/174/228 232/373/457
f 235/177/246 216/403/235 211/175/234 249/374/481 174/380/482 166/375/170 35/376/72 240/332/247
f 298/187/288 279/409/277 274/184/276 312/377/479 171/372/478 177/378/179 38/379/83 303/336/289
f 176/161/180 174/380/482 249/374/481 261/181/259 256/180/258 280/381/483 286/382/469 58/348/31
f 64/352/70 185/166/177 189/383/484 384/388/485 360/417/486 348/415/487 336/413/313 331/384/312
f 193/385/193 85/386/95 405/268/338 406/387/341 423/422/488 387/419/489 384/388/485 189/383/484
f 188/395/490 184/389/174 68/390/68 327/359/302 328/391/305 343/392/491 355/393/492 381/394/325
f 192/168/190 188/395/490 381/394/325 376/191/324 418/396/493 402/421/337 397/397/336 79/367/42
f 199/173/222 200/440/219 224/456/494 223/721/495
f 200/439/219 201/202/218 225/222/398 224/455/494
f 202/198/221 203/442/220 230/460/496 229/204/400
f 203/441/220 204/398/223 231/402/497 230/459/496
f 205/174/228 206/444/225 233/462/498 232/373/457
f 206/443/225 207/205/224 234/286/401 233/461/498
f 208/199/227 209/446/226 227/458/499 226/203/399
f 209/445/226 210/399/229 228/401/480 227/457/499
f 220/201/239 221/454/238 251/474/500 250/209/403
f 221/453/238 222/400/241 252/716/501 251/473/500
f 226/203/399 227/458/499 311/514/502 310/223/409
f 227/457/499 228/401/480 312/377/479 311/513/502
f 229/204/400 230/460/496 254/476/503 253/287/434
f 230/459/496 231/402/497 255/325/459 254/475/503
f 214/200/233 215/450/232 236/463/243 237/220/242
f 215/449/232 216/403/235 235/177/246 236/464/243
f 238/206/245 239/466/244 497/639/504 496/292/438
f 239/465/244 240/332/247 498/404/462 497/640/504
f 241/178/252 242/468/249 434/596/505 433/724/461
f 242/467/249 243/291/248 435/434/437 434/595/505
f 217/176/240 218/452/237 245/469/250 246/179/253
f 218/451/237 219/221/236 244/207/251 245/470/250
f 211/175/234 212/448/231 248/472/506 249/374/481
f 212/447/231 213/208/230 247/228/402 248/471/506
f 253/287/434 254/476/503 491/635/507 490/288/435
f 254/475/503 255/325/459 492/327/458 491/634/507
f 256/180/258 257/478/255 281/494/508 280/381/483
f 257/477/255 258/214/254 282/216/404 281/493/508
f 249/374/481 248/472/506 260/479/256 261/181/259
f 248/471/506 247/228/402 259/210/257 260/480/256
f 250/209/412 251/474/500 263/481/261 264/229/260
f 251/473/500 252/716/501 262/182/264 263/482/261
f 265/211/263 266/484/262 284/496/509 283/215/405
f 266/483/262 267/405/265 285/407/510 284/495/509
f 271/212/269 272/488/268 308/512/511 307/224/410
f 272/487/268 273/406/271 309/722/512 308/511/511
f 280/381/483 281/494/508 287/498/513 286/382/469
f 281/493/508 282/216/404 288/295/406 287/497/513
f 283/215/405 284/496/509 290/500/514 289/217/407
f 284/495/509 285/407/510 291/408/515 290/499/514
f 289/217/407 290/500/514 305/510/516 304/296/441
f 290/499/514 291/408/515 306/340/465 305/509/516
f 292/185/282 293/502/279 455/610/517 454/718/467
f 293/501/279 294/301/278 456/435/444 455/609/517
f 268/183/270 269/486/267 296/503/280 297/186/283
f 269/485/267 270/226/266 295/218/281 296/504/280
f 277/213/275 278/492/274 299/505/285 300/227/284
f 278/491/274 279/409/277 298/187/288 299/506/285
f 301/219/287 302/508/286 500/642/518 499/302/445
f 302/507/286 303/336/289 501/410/463 500/643/518
f 304/296/441 305/510/516 503/645/519 502/297/442
f 305/509/516 306/340/465 504/342/464 503/644/519
f 223/721/495 224/456/494 308/511/511 309/722/512
f 224/455/494 225/222/398 307/224/408 308/512/511
f 274/184/276 275/490/273 311/513/502 312/377/479
f 275/489/273 276/225/272 310/223/411 311/514/502
f 313/188/294 314/516/291 338/532/520 337/730/521
f 314/515/291 315/233/290 339/237/413 338/531/520
f 316/310/293 317/518/292 515/655/522 514/311/449
f 317/517/292 318/355/295 516/357/471 515/654/522
f 319/189/300 320/520/297 458/612/523 457/727/474
f 320/519/297 321/305/296 459/436/446 458/611/523
f 322/230/299 323/522/298 341/534/524 340/234/414
f 323/521/298 324/411/301 342/414/525 341/533/524
f 325/231/306 326/524/303 518/657/526 517/306/447
f 326/523/303 327/359/302 519/412/472 518/658/526
f 328/391/305 329/526/304 344/536/527 343/392/491
f 329/525/304 330/235/307 345/239/415 344/535/527
f 334/232/311 335/530/310 347/538/528 346/236/416
f 335/529/310 336/413/313 348/415/487 347/537/528
f 337/730/521 338/532/520 350/540/529 349/731/530
f 338/531/520 339/237/413 351/241/417 350/539/529
f 340/234/414 341/534/524 353/542/531 352/238/418
f 341/533/524 342/414/525 354/416/532 353/541/531
f 343/392/491 344/536/527 356/544/533 355/393/492
f 344/535/527 345/239/415 357/259/419 356/543/533
f 346/236/416 347/538/528 359/546/534 358/240/420
f 347/537/528 348/415/487 360/417/486 359/545/534
f 349/731/530 350/540/529 362/548/535 361/732/536
f 350/539/529 351/241/417 363/261/421 362/547/535
f 352/238/418 353/542/531 371/554/537 370/258/422
f 353/541/531 354/416/532 372/736/538 371/553/537
f 358/240/420 359/546/534 383/562/539 382/260/424
f 359/545/534 360/417/486 384/388/485 383/561/539
f 364/190/318 365/550/315 395/570/540 394/735/541
f 365/549/315 366/246/314 396/254/426 395/569/540
f 370/258/422 371/554/537 374/556/542 373/242/423
f 371/553/537 372/736/538 375/418/543 374/555/542
f 373/242/423 374/556/542 416/584/544 415/250/427
f 374/555/542 375/418/543 417/420/545 416/583/544
f 376/191/324 377/558/321 419/586/546 418/396/493
f 377/557/321 378/251/320 420/255/428 419/585/546
f 355/393/492 356/544/533 380/559/322 381/394/325
f 356/543/533 357/259/419 379/243/323 380/560/322
f 382/260/424 383/562/539 386/564/547 385/244/425
f 383/561/539 384/388/485 387/419/489 386/563/547
f 385/244/425 386/564/547 422/588/548 421/252/429
f 386/563/547 387/419/489 423/422/488 422/587/548
f 388/192/330 389/566/327 425/590/549 424/741/550
f 389/565/327 390/253/326 426/257/430 425/589/549
f 361/732/536 362/548/535 392/567/328 393/733/331
f 362/547/535 363/261/421 391/245/431 392/568/328
f 394/735/541 395/570/540 416/583/544 417/420/545
f 395/569/540 396/254/426 415/250/427 416/584/544
f 400/247/335 401/574/334 419/585/546 420/255/428
f 401/573/334 402/421/337 418/396/493 419/586/546
f 406/387/341 407/578/340 422/587/548 423/422/488
f 407/577/340 408/256/343 421/252/429 422/588/548
f 412/249/347 413/582/346 425/589/549 426/257/430
f 413/581/346 414/423/349 424/741/550 425/590/549
f 430/290/353 431/594/352 488/632/551 487/424/436
f 431/593/352 432/321/355 489/425/456 488/633/551
f 439/294/359 440/600/358 494/637/552 493/426/439
f 440/599/358 441/329/361 495/330/460 494/636/552
f 445/299/365 446/604/364 509/649/553 508/427/440
f 446/603/364 447/347/367 510/428/468 509/650/553
f 451/304/371 452/608/370 506/647/554 505/300/443
f 452/607/370 453/344/373 507/345/466 506/646/554
f 463/308/377 464/616/376 521/660/555 520/429/448
f 464/615/376 465/363/379 522/364/473 521/659/555
f 469/313/383 470/620/382 512/652/556 511/430/450
f 470/619/382 471/351/385 513/431/470 512/653/556
f 472/194/390 473/622/387 476/624/557 475/316/452
f 473/621/387 474/282/386 477/366/432 476/623/557
f 475/316/452 476/624/557 524/662/558 523/432/451
f 476/623/557 477/366/432 525/433/475 524/663/558
f 478/196/396 479/626/393 482/628/559 481/319/455
f 479/625/393 480/284/392 483/370/433 482/627/559
f 481/319/455 482/628/559 533/670/560 532/317/453
f 482/627/559 483/370/433 534/369/477 533/669/560
f 409/193/348 410/580/345 485/630/561 486/738/476
f 410/579/345 411/318/344 484/438/454 485/629/561
f 232/373/457 233/462/498 488/631/551 489/323/456
f 233/461/498 234/286/401 487/424/436 488/632/551
f 427/270/354 428/592/351 491/634/507 492/327/458
f 428/591/351 429/289/350 490/288/435 491/635/507
f 433/724/461 434/596/505 494/636/552 495/330/460
f 434/595/505 435/434/437 493/426/439 494/637/552
f 436/272/360 437/598/357 497/638/504 498/334/462
f 437/597/357 438/293/356 496/292/438 497/639/504
f 448/276/372 449/606/369 500/641/518 501/338/463
f 449/605/369 450/303/368 499/302/445 500/642/518
f 442/274/366 443/602/363 503/644/519 504/342/464
f 443/601/363 444/298/362 502/297/442 503/645/519
f 454/718/467 455/610/517 506/646/554 507/345/466
f 455/609/517 456/435/444 505/300/443 506/647/554
f 286/382/469 287/498/513 509/648/553 510/349/468
f 287/497/513 288/295/406 508/427/440 509/649/553
f 331/384/312 332/528/309 512/651/556 513/353/470
f 332/527/309 333/309/308 511/430/450 512/652/556
f 466/280/384 467/618/381 515/654/522 516/357/471
f 467/617/381 468/312/380 514/311/449 515/655/522
f 460/278/378 461/614/375 518/656/526 519/361/472
f 461/613/375 462/307/374 517/306/447 518/657/526
f 457/727/474 458/612/523 521/659/555 522/364/473
f 458/611/523 459/436/446 520/429/448 521/660/555
f 397/397/336 398/572/333 524/661/558 525/368/475
f 398/571/333 399/314/332 523/432/451 524/662/558
f 367/315/317 368/552/316 527/664/388 528/195/391
f 368/551/316 369/264/319 526/262/389 527/665/388
f 403/248/342 404/576/339 530/666/394 531/197/397
f 404/575/339 405/268/338 529/437/395 530/667/394
f 486/738/476 485/630/561 533/669/560 534/369/477
f 485/629/561 484/438/454 532/317/453 533/670/560
f 535/683/562 536/693/563 538/697/564 537/671/565
f 536/693/563 535/683/562 561/684/566 562/709/567
f 537/671/565 538/697/564 544/723/568 543/673/569
f 539/674/570 540/695/571 542/707/572 541/672/573
f 540/695/571 539/674/570 545/676/574 546/699/575
f 541/672/573 542/707/572 560/734/576 559/682/577
f 543/673/569 544/723/568 548/720/578 547/675/579
f 546/699/575 545/676/574 549/677/580 550/726/581
f 547/675/579 548/720/578 554/703/582 553/678/583
f 550/726/581 549/677/580 551/679/584 552/717/585
f 552/717/585 551/679/584 555/681/586 556/701/587
f 553/678/583 554/703/582 558/705/588 557/680/589
f 556/701/587 555/681/586 557/680/589 558/705/588
f 559/682/577 560/734/576 566/740/590 565/685/591
f 562/709/567 561/684/566 563/686/592 564/729/593
f 564/729/593 563/686/592 567/688/594 568/737/595
f 565/685/591 566/740/590 570/713/596 569/687/597
f 568/737/595 567/688/594 571/690/598 572/711/599
f 569/687/597 570/713/596 574/715/600 573/689/601
f 572/711/599 571/690/598 573/689/601 574/715/600
f 535/683/562 537/671/565 1/691/602
f 539/674/570 541/672/573 1/691/602
f 537/671/565 543/673/569 1/691/602
f 545/676/574 539/674/570 1/691/602
f 543/673/569 547/675/579 1/691/602
f 549/677/580 545/676/574 1/691/602
f 551/679/584 549/677/580 1/691/602
f 547/675/579 553/678/583 1/691/602
f 555/681/586 551/679/584 1/691/602
f 553/678/583 557/680/589 1/691/602
f 557/680/589 555/681/586 1/691/602
f 541/672/573 559/682/577 1/691/602
f 561/684/566 535/683/562 1/691/602
f 563/686/592 561/684/566 1/691/602
f 559/682/577 565/685/591 1/691/602
f 567/688/594 563/686/592 1/691/602
f 565/685/591 569/687/597 1/691/602
f 571/690/598 567/688/594 1/691/602
f 569/687/597 573/689/601 1/691/602
f 573/689/601 571/690/598 1/691/602
f 16/708/13 17/692/16 538/697/564 536/693/563
f 22/698/19 23/694/22 542/707/572 540/695/571
f 17/692/16 29/696/76 544/723/568 538/697/564
f 34/725/78 22/698/19 540/695/571 546/699/575
f 44/704/85 47/700/88 552/717/585 556/701/587
f 52/719/25 53/702/28 558/705/588 554/703/582
f 53/702/28 44/704/85 556/701/587 558/705/588
f 23/694/22 65/706/80 560/734/576 542/707/572
f 73/728/74 16/708/13 536/693/563 562/709/567
f 91/714/92 82/710/91 568/737/595 572/711/599
f 88/739/43 95/712/46 574/715/600 570/713/596
f 95/712/46 91/714/92 572/711/599 574/715/600
f 47/700/88 306/340/465 291/408/515 285/407/510 267/405/265 262/182/264 252/716/501 550/726/581 552/717/585
f 454/718/467 52/719/25 554/703/582 548/720/578 309/722/512 273/406/271 268/183/270 297/186/283 292/185/282
f 29/696/76 255/325/459 231/402/497 204/398/223 199/173/222 223/721/495 309/722/512 548/720/578 544/723/568
f 433/724/461 34/725/78 546/699/575 550/726/581 252/716/501 222/400/241 217/176/240 246/179/253 241/178/252
f 457/727/474 73/728/74 562/709/567 564/729/593 372/736/538 354/416/532 342/414/525 324/411/301 319/189/300
f 65/706/80 318/355/295 313/188/294 337/730/521 349/731/530 361/732/536 393/733/331 566/740/590 560/734/576
f 82/710/91 369/264/319 364/190/318 394/735/541 417/420/545 375/418/543 372/736/538 564/729/593 568/737/595
f 486/738/476 88/739/43 570/713/596 566/740/590 393/733/331 388/192/330 424/741/550 414/423/349 409/193/348
